<?xml version="1.0" encoding="UTF-8"?>
<!DOCTYPE svg PUBLIC "-//W3C//DTD SVG 1.1//EN" "http://www.w3.org/Graphics/SVG/1.1/DTD/svg11.dtd">
<!-- Creator: CorelDRAW -->
<svg xmlns="http://www.w3.org/2000/svg" xml:space="preserve" width="89.9609mm" height="52.0664mm" version="1.1" style="shape-rendering:geometricPrecision; text-rendering:geometricPrecision; image-rendering:optimizeQuality; fill-rule:evenodd; clip-rule:evenodd"
viewBox="0 0 8714.42 5043.62"
 xmlns:xlink="http://www.w3.org/1999/xlink"
 xmlns:xodm="http://www.corel.com/coreldraw/odm/2003">
 <defs>
  <style type="text/css">
   <![CDATA[
    .str0 {stroke:#2B2A29;stroke-width:7.38;stroke-miterlimit:10}
    .fil2 {fill:none;fill-rule:nonzero}
    .fil0 {fill:#2B2A29}
    .fil1 {fill:#2B2A29;fill-rule:nonzero}
   ]]>
  </style>
 </defs>
 <g id="Слой_x0020_1">
  <metadata id="CorelCorpID_0Corel-Layer"/>
  <path class="fil0" d="M4024.91 1213.31c1.6,-9.91 4.82,-12.77 9.67,-21.27 41.9,-60.28 74.11,-125.53 103.12,-192.91 19.34,-48.91 37.05,-96.43 51.56,-149.62 67.66,-238.31 46.71,-540.42 -153.08,-703.57 -25.78,-20.57 -53.15,-37.57 -80.55,-53.9 -58.01,-34.74 -125.68,-54.6 -193.34,-70.19 -143.4,-33.33 -335.14,-27.69 -475.32,11.32 -67.67,18.44 -130.51,45.39 -191.73,74.47 -30.61,14.2 -62.83,26.24 -91.83,40.42 -62.84,32.63 -127.29,67.39 -185.29,109.23 -64.45,45.4 -127.29,92.21 -185.29,145.4l-119.23 114.18c-32.23,39.01 -90.24,89.34 -127.29,136.87 -4.84,7.8 -8.07,9.95 -14.51,17.03 -6.44,7.09 -9.67,10.63 -16.11,19.16 -11.28,10.62 -19.34,22.68 -29,34.74 -6.45,7.09 -9.67,9.92 -14.49,17.75 -6.45,6.38 -11.29,12.77 -16.11,19.12 -11.29,12.77 -54.79,60.31 -58.01,76.6 67.66,0 51.55,-6.38 87,-50.36l219.12 -232.6c8.07,-7.11 11.29,-8.53 19.34,-16.33 87.01,-82.25 272.3,-203.55 373.81,-256.01 66.06,-34.05 111.18,-60.29 186.89,-90.81 32.23,-13.47 72.52,-27.65 104.73,-36.86 61.22,-16.33 178.85,-41.15 243.3,-35.48 156.29,12.77 249.74,39.72 368.96,121.28 125.67,83.69 232.02,244.68 230.4,397.87 0,91.51 -3.23,160.29 -25.79,248.94 -46.71,183 -125.66,329.09 -230.4,467.37 -33.82,46.1 -69.27,94.35 -109.55,136.18 -37.06,39.73 -119.23,129.79 -156.3,158.17 -27.38,20.57 -49.94,44.67 -75.71,65.94 -12.9,9.94 -24.18,19.15 -37.06,29.8 -14.51,11.36 -25.78,19.86 -40.29,30.48 -29,21.3 -53.16,39.01 -82.16,58.87 -29,19.15 -54.78,36.19 -83.78,53.93 -30.62,19.12 -59.61,35.45 -88.62,53.19 -14.51,7.8 -27.4,14.89 -43.51,23.38 -177.22,94.32 -359.3,174.47 -562.31,207.8 -182.07,29.81 -331.91,29.81 -493.02,-24.12 -302.92,-100.71 -447.91,-358.13 -422.14,-691.47 12.88,-166.67 32.22,-195.76 75.72,-342.58 4.82,-19.12 9.67,-34.75 16.12,-53.9 19.33,-49.64 37.04,-100.71 61.22,-148.23 8.05,-16.29 16.11,-31.2 22.56,-46.1 16.11,-31.18 33.83,-60.99 53.15,-88.64l58.01 -83.69c8.07,-12.06 24.18,-27.66 27.39,-42.54 -9.67,-2.11 -8.06,-3.56 -17.73,-6.38 -20.93,14.18 -33.83,34.75 -51.55,52.48l-135.35 173.06c-27.38,41.12 -54.78,82.25 -77.33,126.25l-67.66 138.3c-49.97,109.91 -85.41,245.37 -95.08,366.67 -11.27,116.3 -16.11,212.74 12.89,329.77 19.34,80.85 53.18,145.4 98.29,210.65 19.34,29.78 45.11,57.43 70.89,82.97 9.67,9.92 17.73,14.18 27.39,24.13 116.01,113.47 281.96,170.9 447.9,170.19 16.13,0 33.85,0 51.57,0.71 20.93,0 29,-3.53 48.34,-3.53 130.49,-2.14 389.9,-63.14 509.13,-109.95 215.9,-85.82 348.01,-148.22 542.97,-277.29 82.18,-54.63 162.74,-110.65 235.25,-175.2 9.67,-7.8 19.34,-14.9 29,-22.69l96.68 -85.83c6.44,-5.68 8.05,-5.68 14.49,-11.34l27.39 -24.1c82.17,-73.05 169.18,-139.02 248.12,-213.47 6.44,-6.38 8.06,-5.69 14.5,-11.37 6.45,-4.96 8.07,-7.79 12.89,-12.05l41.89 -35.45c6.44,-5.69 8.07,-5.69 14.51,-12.07l112.78 -95.73c35.44,-34.04 74.11,-61.7 109.56,-95.03l194.96 -165.25c14.49,-13.47 72.51,-64.56 88.62,-68.09l-85.39 148.23c-8.07,12.77 -12.89,25.53 -20.95,37.57 -43.49,75.2 -75.72,157.45 -114.39,234.77 -33.85,66.67 -59.62,135.45 -88.62,206.39 -40.29,100 -232.01,617 -206.23,726.95 17.72,9.2 49.94,14.18 69.27,2.82 29,-17.74 49.96,-38.3 75.74,-58.87 9.67,-7.09 14.49,-12.77 24.17,-20.57 33.83,-26.95 106.33,-95.73 138.56,-127.65 8.05,-7.8 14.49,-15.6 22.56,-22.69 58,-48.96 191.73,-187.96 246.51,-243.98 38.67,-36.89 77.34,-74.45 111.16,-113.47l67.68 -67.37c119.24,-119.16 240.07,-236.19 357.68,-358.17l41.9 -44.68c16.11,-16.31 30.62,-26.96 46.73,-43.26 30.62,-30.5 58,-58.87 88.62,-90.08l141.79 -128.37c16.11,-14.88 30.62,-28.35 48.34,-40.42 -3.23,12.77 -37.05,63.14 -46.73,77.33 -51.56,78.7 -93.45,160.99 -136.94,245.39 -66.06,133.31 -101.51,236.86 -117.62,388.65 -35.45,331.92 146.62,555.31 365.73,642.54 99.9,39.01 206.23,58.87 317.41,60.28 20.95,0.71 37.07,4.27 61.23,3.56l61.23 -2.86c93.45,-0.71 228.79,-33.33 312.57,-65.96 116,-44.66 227.18,-107.09 325.47,-181.56 12.89,-9.91 22.56,-17.73 37.05,-27.66 66.06,-50.35 178.84,-143.98 238.46,-204.26 8.05,-7.09 9.67,-8.51 17.72,-14.18 16.11,-13.47 29,-39.72 49.96,-45.39 -6.44,-9.92 -24.18,-10.63 -35.44,-16.3 -29,19.86 -56.41,46.1 -83.78,69.49 -133.74,117.03 -310.97,240.43 -476.92,306.39 -203.03,81.58 -517.21,106.38 -725.05,12.06 -88.61,-39.72 -164.34,-92.2 -223.96,-169.49 -214.29,-279.44 -78.94,-690.8 78.95,-953.2 40.29,-66.67 78.96,-128.36 124.07,-190.09l172.41 -215.59c24.16,-31.21 85.38,-95.74 114.38,-124.12 6.44,-7.1 11.29,-12.04 19.34,-19.13 8.06,-8.53 9.67,-12.77 17.73,-21.3 12.89,-14.18 25.78,-26.24 38.67,-39.72 14.49,-14.18 25.78,-24.8 38.66,-38.98 16.12,-14.21 27.4,-23.42 41.9,-38.3 14.51,-13.47 25.78,-25.54 38.67,-38.31l103.13 -92.92c8.05,-7.79 11.28,-15.59 22.54,-18.43 0,-22.69 -8.05,-34.05 -29,-35.46 -19.34,-2.11 -38.66,24.84 -56.38,39.73 -22.56,19.15 -41.9,42.54 -66.07,61.7l-69.27 59.57c-6.44,5.68 -9.68,10.66 -16.11,15.6 -8.06,6.38 -9.67,7.09 -16.11,14.92 -27.39,26.95 -59.61,48.92 -87.02,73.76 -12.89,10.62 -24.16,19.86 -35.44,29.06l-348.01 297.89c-35.44,28.35 -64.45,63.81 -101.51,92.91 -14.51,10.62 -20.95,19.15 -33.85,31.19 -6.44,7.82 -9.67,8.52 -17.71,14.2l-48.34 48.22c-11.29,12.06 -20.96,17.72 -33.85,30.48 -30.6,31.91 -61.22,65.96 -95.07,95.76l-35.44 32.63c-130.49,129.06 -277.11,271.61 -402.79,402.11 -8.06,7.8 -8.06,10.66 -14.51,17.75 -45.1,51.04 -112.77,110.61 -162.73,162.4l-188.52 198.59c-30.6,31.18 -164.34,170.19 -193.33,192.2 -12.89,10.62 -20.95,18.42 -33.85,29.78 -12.89,10.65 -22.56,21.27 -38.67,29.07 0,-25.53 8.07,-63.11 12.89,-83.68 6.44,-27.66 11.29,-50.37 17.73,-78.03 22.56,-90.76 61.22,-199.29 99.89,-285.1 11.29,-23.39 17.73,-44.67 29,-67.38 48.34,-98.55 91.84,-197.14 143.4,-292.9l69.28 -126.25c53.16,-90.76 109.56,-182.27 167.56,-269.49 12.89,-19.16 24.16,-39.02 38.67,-57.45l78.95 -112.77c58.01,-81.55 125.68,-170.2 191.72,-244.66l90.24 -102.15c40.27,-46.07 185.29,-192.9 222.33,-217.71 -4.82,-18.45 -14.49,-36.9 -41.89,-31.93 -11.29,2.13 -98.28,91.51 -114.4,106.39 -8.04,7.79 -11.27,9.21 -19.34,16.3 -6.44,6.38 -12.88,12.06 -19.34,19.15l-272.29 243.98c-8.05,7.79 -9.67,9.2 -19.34,16.3 -8.05,7.09 -11.27,12.05 -19.34,18.43 -54.78,43.99 -104.73,92.92 -159.51,136.17 -69.27,53.93 -132.11,114.21 -201.4,168.11 -25.78,21.27 -51.55,46.1 -78.94,67.37 -14.51,10.63 -25.78,22.69 -40.29,34.04 -69.27,53.9 -132.11,114.89 -201.4,168.08 -25.78,19.86 -54.78,52.48 -82.16,67.37z"/>
  <path class="fil1" d="M2846.53 3346.07l0 83.12 -6.6 0c-0.38,-5.85 -1.89,-12.27 -4.52,-19.25 -2.83,-7.16 -6.4,-13.74 -11.13,-19.59 -4.7,-6.03 -9.98,-11.13 -16.21,-15.09 -6.21,-3.94 -13.18,-6.01 -20.72,-6.01l-306.44 0c-7.55,0 -14.34,2.06 -20.56,6.39 -6.21,4.16 -11.67,9.22 -16.39,15.28 -4.71,5.83 -8.49,12.44 -11.31,19.58 -2.82,6.97 -4.51,13.2 -4.9,18.69l-6.59 0 0 -83.12 29.22 0c14.13,0 24.11,-8.3 29.95,-24.7l152.85 -400.84 154.17 398.78c3.21,6.61 7.34,12.83 12.81,18.28 5.28,5.67 11.52,8.49 18.47,8.49l27.9 0zm-351.66 0l255.93 0 -128.35 -330.58 -127.58 330.58zm685.34 -19.97c0,3.57 0.56,7.34 1.7,11.49 1.12,4.33 2.63,8.09 4.34,11.7 1.7,3.57 4.14,6.58 6.97,9.2 2.82,2.83 5.64,4.16 8.27,4.16l0 6.62 -84.99 0 0 -6.62c3.02,0 5.84,-1.33 8.66,-3.75 2.64,-2.46 4.92,-5.48 6.62,-9.25 1.7,-3.76 3,-7.73 3.94,-12.06 0.94,-4.15 1.33,-7.91 1.33,-11.49l0 -159.64 -158.32 154.91 0 4.73c0,3.57 0.57,7.34 1.51,11.49 0.95,4.33 2.28,8.09 3.97,11.7 1.69,3.57 3.94,6.58 6.4,9.2 2.45,2.83 5.08,4.16 8.12,4.16l0 6.62 -84.45 0 0 -6.62c3.21,0 6.03,-1.33 8.67,-3.75 2.65,-2.46 4.9,-5.48 6.79,-9.25 1.7,-3.76 3.02,-7.73 3.95,-12.06 0.95,-4.15 1.32,-7.91 1.32,-11.49l0 -194.89c0,-3.18 -0.37,-6.76 -1.32,-10.73 -0.93,-3.94 -2.26,-7.73 -3.95,-11.31 -1.89,-3.56 -4.14,-6.38 -6.79,-8.84 -2.63,-2.46 -5.46,-3.57 -8.67,-3.57l0 -6.79 84.45 0 0 6.79c-3.6,0 -6.42,1.11 -8.88,3.57 -2.43,2.46 -4.51,5.28 -6.03,8.84 -1.5,3.58 -2.63,7.37 -3.58,11.31 -0.94,3.97 -1.51,7.56 -1.51,10.73l0 158.88 158.32 -154.91 0 -3.97c0,-3.18 -0.39,-6.76 -1.33,-10.73 -0.94,-3.94 -2.25,-7.73 -3.94,-11.31 -1.7,-3.56 -3.97,-6.38 -6.62,-8.84 -2.82,-2.46 -5.64,-3.57 -8.66,-3.57l0 -6.79 84.99 0 0 6.79c-3.57,0 -6.78,1.11 -9.61,3.57 -2.81,2.46 -5.09,5.28 -6.59,8.84 -1.51,3.58 -2.63,7.37 -3.59,11.31 -0.94,3.97 -1.5,7.56 -1.5,10.73l0 194.89zm279.97 -170.94c0,10.74 -4.72,22.05 -13.96,34.29 -9.22,12.27 -21.85,21.88 -37.88,28.86 24.69,5.45 42.59,14.7 53.53,27.7 10.74,13 16.21,26.95 16.21,41.44 0,13.77 -3.4,25.82 -9.99,36.56 -6.61,10.76 -15.63,19.61 -26.95,26.58 -11.31,7.16 -24.13,12.44 -38.46,16.01 -14.5,3.6 -29.41,5.3 -44.85,5.3 -14.7,0 -27.69,-1.51 -39.19,-4.33 -11.51,-2.85 -21.5,-6.03 -29.98,-9.43 -8.48,-3.23 -15.45,-6.42 -20.91,-9.25 -5.66,-2.82 -10,-4.34 -13,-4.34l0 -53.71 6.03 0c0.94,9.25 3.94,17.55 9.23,24.89 5.28,7.34 12.07,13.38 20.35,18.46 8.1,5.1 17.52,9.07 27.89,11.7 10.36,2.82 21.11,4.13 32.23,4.13 10.18,0 20.36,-1.12 30.34,-3.37 10.01,-2.27 18.86,-5.67 26.59,-10.36 7.72,-4.74 13.93,-10.58 18.84,-17.74 4.88,-6.97 7.34,-15.25 7.34,-24.49 0,-9.61 -2.63,-18.45 -7.9,-26.19 -5.46,-7.73 -12.44,-14.34 -21.11,-19.62 -8.69,-5.28 -18.1,-9.21 -28.47,-12.05 -10.36,-2.64 -20.72,-3.95 -30.92,-3.95l-21.28 0 0 -21.31 23.18 0c9.23,0 18.28,-1.48 26.95,-4.7 8.67,-3.03 16.21,-6.97 22.43,-11.89 6.22,-4.9 11.12,-10.55 14.88,-16.94 3.79,-6.43 5.67,-13 5.67,-19.62 0,-7.9 -2.06,-15.06 -6.21,-21.3 -4.34,-6.22 -10,-11.49 -16.97,-16.01 -7.16,-4.34 -15.07,-7.73 -23.74,-10.19 -8.67,-2.42 -17.71,-3.57 -26.95,-3.57 -8.49,0 -16.58,0.94 -24.5,2.83 -8.12,2.08 -15.28,5.3 -21.68,9.64 -6.41,4.51 -11.69,10.15 -15.84,16.76 -4.33,6.59 -7.16,14.7 -8.47,23.92l-6.03 0 0 -51.8c3.57,0 6.79,-0.59 9.99,-1.7 3.21,-1.12 6.78,-2.85 10.74,-5.1 6.97,-3.57 15.65,-6.97 25.82,-10.36 10.18,-3.22 23,-4.91 38.64,-4.91 34.5,0 61.25,6.22 80.09,18.68 18.85,12.42 28.28,29.2 28.28,50.5zm260.55 214.11l0 -33.92 -3.39 3.36c-11.11,11.13 -23.74,19.62 -38.06,25.83 -14.51,6.21 -31.85,9.43 -52.22,9.43 -15.63,0 -28.83,-1.88 -39.95,-5.46 -11.11,-3.57 -20.16,-8.49 -27.13,-14.88 -7.16,-6.43 -12.43,-13.77 -15.64,-22.25 -3.4,-8.49 -5.09,-17.34 -5.09,-26.58 0,-15.07 4.15,-28.44 12.45,-39.96 8.1,-11.49 19.97,-21.86 35.42,-30.71 15.46,-8.84 34.49,-16.77 56.92,-24.13 22.43,-7.33 47.86,-14.51 76.7,-21.67 -0.94,-17.17 -4.33,-31.09 -10.56,-41.84 -6.21,-10.55 -13.55,-18.85 -22.03,-24.89 -8.5,-6.03 -17.35,-9.98 -26.59,-12.06 -9.22,-1.89 -17.34,-2.83 -23.92,-2.83 -11.51,0 -21.7,1.7 -30.55,4.91 -8.85,3.22 -16.77,7.74 -23.35,13.18 -6.61,5.68 -12.07,12.07 -16.22,19.04 -4.34,7.15 -7.55,14.31 -9.62,21.28l-6.03 0 0 -51.81c3.95,0 8.67,-1.52 13.95,-4.34 5.27,-2.85 11.67,-6.21 19.03,-9.82 7.35,-3.57 16.22,-6.75 26.57,-9.6 10.38,-2.83 23,-4.13 37.52,-4.13 24.3,0 44.09,2.99 59.18,9.21 15.06,6.25 26.76,14.34 35.05,24.53 8.09,10.34 13.57,22.03 16.21,35.04 2.64,13.01 3.95,26.38 3.95,40.13l0 131.75c0,8.84 2.27,17.16 6.61,24.86 4.33,7.76 10.36,11.69 17.9,11.69l0 6.62 -67.1 0zm0 -63.14l0 -95.19 -6.59 1.34c-10.75,2.82 -23.56,6.39 -38.83,10.72 -15.26,4.33 -29.78,10.19 -43.53,17.17 -13.77,7.15 -25.64,15.64 -35.25,25.24 -9.79,9.79 -14.7,21.1 -14.7,34.12 0,14.15 5.85,25.82 17.34,35.04 11.52,9.45 26.4,14.15 45.04,14.15 14.7,0 27.53,-3.22 38.65,-9.79 11.12,-6.42 21.28,-14.7 30.53,-24.89l7.33 -7.9zm408.13 19.97c0,3.57 0.58,7.34 1.7,11.49 1.12,4.33 2.63,8.09 4.33,11.7 1.7,3.57 4.16,6.58 6.97,9.2 2.83,2.83 5.67,4.16 8.28,4.16l0 6.62 -84.98 0 0 -6.62c3,0 5.83,-1.33 8.67,-3.75 2.63,-2.46 4.89,-5.48 6.59,-9.25 1.7,-3.76 3.02,-7.73 3.97,-12.06 0.94,-4.15 1.31,-7.91 1.31,-11.49l0 -159.64 -158.3 154.91 0 4.73c0,3.57 0.57,7.34 1.5,11.49 0.95,4.33 2.26,8.09 3.95,11.7 1.7,3.57 3.97,6.58 6.42,9.2 2.46,2.83 5.09,4.16 8.1,4.16l0 6.62 -84.42 0 0 -6.62c3.19,0 6.03,-1.33 8.67,-3.75 2.63,-2.46 4.88,-5.48 6.78,-9.25 1.7,-3.76 3.01,-7.73 3.94,-12.06 0.95,-4.15 1.33,-7.91 1.33,-11.49l0 -194.89c0,-3.18 -0.38,-6.76 -1.33,-10.73 -0.93,-3.94 -2.25,-7.73 -3.94,-11.31 -1.9,-3.56 -4.15,-6.38 -6.78,-8.84 -2.64,-2.46 -5.48,-3.57 -8.67,-3.57l0 -6.79 84.42 0 0 6.79c-3.57,0 -6.4,1.11 -8.85,3.57 -2.45,2.46 -4.52,5.28 -6.03,8.84 -1.52,3.58 -2.64,7.37 -3.59,11.31 -0.93,3.97 -1.5,7.56 -1.5,10.73l0 158.88 158.3 -154.91 0 -3.97c0,-3.18 -0.37,-6.76 -1.31,-10.73 -0.95,-3.94 -2.28,-7.73 -3.97,-11.31 -1.7,-3.56 -3.95,-6.38 -6.59,-8.84 -2.84,-2.46 -5.67,-3.57 -8.67,-3.57l0 -6.79 84.98 0 0 6.79c-3.57,0 -6.76,1.11 -9.59,3.57 -2.84,2.46 -5.1,5.28 -6.6,8.84 -1.52,3.58 -2.64,7.37 -3.59,11.31 -0.93,3.97 -1.51,7.56 -1.51,10.73l0 194.89zm-51.07 -325.85c0,7.16 -1.7,14.89 -5.28,22.98 -3.57,8.1 -8.85,15.64 -15.46,22.43 -6.58,6.96 -14.49,12.61 -23.55,16.94 -9.04,4.55 -19.03,6.79 -30.15,6.79 -10.18,0 -19.79,-2.06 -28.85,-6.39 -9.22,-4.16 -17.14,-9.61 -23.73,-16.23 -6.61,-6.57 -11.88,-14.12 -15.83,-22.24 -3.97,-8.1 -6.04,-16.2 -6.04,-24.29l3.95 0c0.4,2.63 1.91,6.22 4.34,10.91 2.45,4.71 6.22,9.43 11.7,14.35 5.27,4.88 12.24,9.03 20.9,12.6 8.49,3.59 19.4,5.28 32.8,5.28 13.75,0 25.07,-1.69 33.92,-5.28 8.85,-3.57 16.01,-7.72 21.29,-12.6 5.28,-4.92 9.05,-9.64 11.3,-14.35 2.28,-4.69 3.78,-8.27 4.72,-10.91l3.95 0zm214.57 325.85c0,3.57 0.57,7.34 1.49,11.49 0.96,4.33 2.27,8.09 3.96,11.7 1.7,3.57 3.97,6.58 6.42,9.2 2.44,2.83 5.08,4.16 8.11,4.16l0 6.62 -83.69 0 0 -6.62c3.2,0 5.84,-1.33 8.29,-3.75 2.46,-2.46 4.52,-5.48 6.41,-9.25 1.7,-3.76 3.02,-7.73 3.96,-12.06 0.93,-4.15 1.31,-7.91 1.31,-11.49l0 -194.89c0,-3.18 -0.38,-6.76 -1.31,-10.73 -0.94,-3.94 -2.27,-7.73 -3.96,-11.31 -1.89,-3.56 -3.95,-6.38 -6.41,-8.84 -2.45,-2.46 -5.1,-3.57 -8.29,-3.57l0 -6.79 83.69 0 0 6.79c-3.58,0 -6.41,1.11 -8.86,3.57 -2.45,2.46 -4.53,5.28 -6.03,8.84 -1.51,3.58 -2.63,7.37 -3.59,11.31 -0.92,3.97 -1.49,7.56 -1.49,10.73l0 80.48 151.72 0 0 -80.48c0,-3.18 -0.39,-6.76 -1.33,-10.73 -0.94,-3.94 -2.06,-7.73 -3.57,-11.31 -1.7,-3.56 -3.58,-6.38 -6.03,-8.84 -2.45,-2.46 -5.46,-3.57 -9.04,-3.57l0 -6.79 83.67 0 0 6.79c-3.57,0 -6.39,1.11 -8.85,3.57 -2.45,2.46 -4.72,5.28 -6.42,8.84 -1.7,3.58 -3,7.37 -3.57,11.31 -0.57,3.97 -0.94,7.56 -0.94,10.73l0 194.89c0,3.57 0.37,7.34 1.33,11.49 0.95,4.33 2.26,8.09 3.95,11.7 1.7,3.57 3.96,6.58 6.41,9.2 2.44,2.83 5.08,4.16 8.1,4.16l0 6.62 -83.67 0 0 -6.62c3.19,0 5.83,-1.33 8.28,-3.75 2.45,-2.46 4.51,-5.48 6.41,-9.25 1.68,-3.76 3.01,-7.73 3.95,-12.06 0.94,-4.15 1.33,-7.91 1.33,-11.49l0 -92.55 -151.72 0 0 92.55zm282.61 -93.86l0 -33.19 150.97 0 0 33.19 -150.97 0zm365.73 -146.8c22.05,0 42.21,3.57 60.12,10.91 17.9,7.37 33.34,17.16 45.98,29.81 12.63,12.59 22.24,27.68 28.83,44.82 6.61,17.35 10,36.2 10,56.76 0,21.67 -3.78,41.44 -11.3,59.35 -7.55,17.89 -17.91,33.34 -31.28,46.17 -13.4,13.01 -29.04,23.02 -47.14,29.98 -18.28,7.16 -37.88,10.73 -59.18,10.73 -22.61,0 -42.78,-4.34 -60.49,-13.01 -17.91,-8.67 -32.97,-20.52 -45.23,-35.62 -12.44,-15.06 -22.06,-32.98 -28.64,-53.53 -6.61,-20.53 -10,-42.78 -10,-66.68 0,-13.77 0.76,-26.59 2.46,-38.08 1.51,-11.52 3.94,-22.62 7.33,-33.57 3.21,-10.72 7.36,-21.27 12.25,-31.46 4.72,-10.19 10.56,-20.9 17.16,-32.03 18.67,-29.23 42.04,-52.2 70.1,-68.99 28.07,-16.78 56.93,-25.25 86.14,-25.25l84.41 0 -25.81 42.4 -69.16 0c-14.13,0 -28.46,2.45 -42.59,7.56 -14.12,5.1 -27.52,12.61 -40.14,22.61 -12.63,9.98 -23.95,22.25 -33.55,36.38 -9.79,14.11 -17.52,30.34 -23.37,48.62 11.88,-14.7 25.83,-26.4 41.65,-35.07 15.64,-8.46 36.19,-12.8 61.44,-12.8zm3.95 265.91c16.4,-0.93 30.73,-4.7 43.16,-11.69 12.43,-6.97 22.79,-15.83 31.28,-26.75 8.49,-10.76 14.7,-23.01 19.03,-36.56 4.15,-13.4 6.22,-27.35 6.22,-41.46 0,-16.41 -2.64,-32.23 -7.92,-47.51 -5.45,-15.27 -13,-28.82 -22.61,-40.32 -9.79,-11.51 -21.49,-20.73 -34.86,-27.88 -13.57,-6.97 -28.64,-10.58 -45.04,-10.58 -16.01,0 -30.16,3.38 -42.41,10.17 -12.43,6.97 -22.79,15.84 -31.28,26.95 -8.49,11.13 -14.7,23.96 -18.85,38.08 -4.32,14.12 -6.41,28.47 -6.41,42.59 0,14.13 2.64,28.47 7.74,43.35 5.09,14.88 12.24,28.47 21.85,40.33 9.61,11.87 21.11,21.88 34.68,29.58 13.39,7.72 28.64,11.69 45.42,11.69zm469.39 -265.91c22.04,0 42.02,3.57 59.55,10.91 17.54,7.37 32.23,17.16 44.28,29.81 11.89,12.59 21.11,27.68 27.53,44.82 6.4,17.35 9.61,36.2 9.61,56.76 0,21.67 -3.58,41.44 -10.56,59.35 -7.16,17.89 -17.33,33.34 -30.34,46.17 -13,13.01 -28.46,23.02 -46.17,29.98 -17.73,7.16 -37.31,10.73 -58.63,10.73 -20.91,0 -39.76,-3.94 -56.72,-11.67 -17.16,-7.72 -31.85,-18.1 -44.29,-30.92 -12.44,-12.83 -22.05,-27.7 -28.84,-44.68 -6.97,-16.77 -10.55,-34.47 -11.12,-53.14l-45.23 0 0 92.55c0,3.57 0.57,7.15 1.49,11.12 0.96,3.94 2.09,7.91 3.6,11.67 1.49,3.76 3.37,6.79 5.64,9.25 2.28,2.45 4.9,3.93 7.92,4.5l0 6.62 -82.37 0 0 -6.62c3.21,-0.57 5.84,-2.05 8.3,-4.5 2.45,-2.46 4.51,-5.49 6.4,-9.25 1.7,-3.76 3.02,-7.73 3.96,-11.67 0.94,-3.97 1.31,-7.55 1.31,-11.12l0 -194.89c0,-5.82 -1.7,-12.8 -4.88,-20.92 -3.4,-8.09 -8.3,-12.6 -14.52,-13.54l0 -6.79 81.8 0 0 6.79c-6.6,0.94 -11.5,5.45 -14.33,13.54 -2.84,8.13 -4.33,15.1 -4.33,20.92l0 80.48 46.54 0c2.84,-16.39 7.74,-32.4 14.7,-47.69 6.97,-15.24 16.6,-28.64 28.64,-40.49 11.89,-11.7 26.4,-20.94 43.16,-27.92 16.78,-6.76 36.19,-10.15 57.87,-10.15zm5.28 265.15c16,-0.37 29.77,-3.94 41.64,-10.94 11.67,-6.97 21.28,-15.83 28.84,-26.75 7.54,-10.76 13.18,-23.01 16.76,-36.56 3.58,-13.4 5.28,-27.35 5.28,-41.46 0,-16.41 -2.45,-32.23 -7.34,-47.51 -4.9,-15.27 -11.88,-28.82 -20.91,-40.7 -9.24,-11.67 -20.17,-21.1 -32.98,-28.07 -12.83,-6.97 -27.53,-10.54 -43.92,-10.54 -16.4,0 -30.35,3.38 -42.01,10.15 -11.9,6.99 -21.69,15.85 -29.41,26.57 -7.73,10.96 -13.58,23.37 -17.34,37.32 -3.77,13.94 -5.65,28.07 -5.65,42.23 0,14.49 2.07,29.38 6.4,44.47 4.15,15.06 10.55,28.64 19.22,40.5 8.67,12.07 19.8,21.89 33.35,29.61 13.4,7.73 29.4,11.67 48.08,11.67zm351.01 -265.15c23.93,0 44.66,4.13 62.18,12.24 17.52,8.09 32.04,18.85 43.92,32.22 11.67,13.38 20.34,28.65 26.19,45.81 5.85,17.34 8.67,35.04 8.67,53.32 0,17.74 -2.82,35.27 -8.3,52.42 -5.46,17.31 -13.95,32.77 -25.25,46.53 -11.3,13.77 -25.44,24.9 -42.21,33.35 -16.79,8.49 -36.76,12.64 -59.93,12.64 -13.76,0 -27.7,-3.76 -42.03,-11.13 -14.52,-7.33 -27.51,-16.39 -39.02,-27.49l0 136.99c0,3.58 0.39,7.36 1.34,11.7 0.94,4.13 2.24,8.09 4.33,11.67 2.05,3.57 4.33,6.61 6.79,9.24 2.43,2.63 5.26,3.94 8.85,3.94l0 6.61 -86.51 0 0 -6.61c3.21,0 6.03,-1.31 8.67,-3.94 2.63,-2.63 4.9,-5.67 6.97,-9.24 2.07,-3.58 3.39,-7.55 4.33,-11.67 0.95,-4.34 1.33,-8.12 1.33,-11.7l0 -343.19c0,-3.94 0,-7.73 -0.18,-11.49 -0.19,-3.76 -1.14,-7.18 -2.45,-10.01 -1.33,-2.82 -3.4,-5.27 -6.24,-7.33 -2.83,-2.08 -6.96,-3.22 -12.43,-3.57l0 -6.79 65.2 0 0 29.41c8.85,-10.76 19.79,-19.04 32.43,-25.08 12.61,-5.85 26.95,-8.84 43.35,-8.84zm6.02 265.91c15.45,-0.57 29.03,-4.16 40.52,-10.72 11.5,-6.62 21.11,-15.29 28.64,-26.02 7.55,-10.57 13,-22.43 16.58,-35.42 3.57,-13.01 5.29,-26.77 5.29,-40.9 0,-16.03 -2.26,-31.68 -6.6,-47.32 -4.33,-15.43 -10.75,-29.2 -19.24,-41.47 -8.47,-12.25 -18.66,-22.22 -30.9,-29.95 -12.23,-7.73 -26.01,-11.48 -41.64,-11.48 -9.24,0 -18.46,1.7 -27.53,5.27 -9.21,3.57 -17.14,8.67 -23.92,15.25 -6.97,6.61 -12.46,14.52 -16.59,23.58 -4.33,9.04 -6.41,19.23 -6.41,30.35l0 87.06c0,11.89 2.46,22.79 7.36,32.81 4.89,9.97 11.3,18.64 19.03,25.98 7.73,7.36 16.38,13 26.19,16.96 9.62,3.98 19.4,6.03 29.21,6.03zm347.82 22.62c-22.23,0 -42.22,-3.76 -59.92,-11.13 -17.73,-7.33 -32.79,-17.34 -45.42,-29.94 -12.62,-12.65 -22.43,-27.53 -29.21,-44.87 -6.97,-17.16 -10.36,-35.98 -10.36,-56.36 0,-21.67 3.76,-41.64 11.3,-59.56 7.34,-17.89 17.71,-33.36 31.1,-46.18 13.37,-12.82 29.01,-22.79 47.28,-29.94 18.1,-6.97 37.9,-10.55 59.18,-10.55 21.31,0 40.71,3.39 58.44,10.15 17.71,6.97 32.96,16.61 45.96,29.04 12.82,12.42 22.81,27.12 29.98,44.1 6.96,17.14 10.55,35.8 10.55,56.15 0,19.03 -3.21,37.7 -9.61,55.59 -6.4,17.91 -16.01,33.74 -28.65,47.49 -12.61,13.77 -28.26,24.9 -46.54,33.35 -18.29,8.49 -39.76,12.64 -64.09,12.64zm-4.15 -266.67c-16.02,0.94 -29.97,4.69 -42.23,11.48 -12.24,6.97 -22.41,15.84 -30.52,26.59 -8.1,10.92 -14.31,23.17 -18.45,36.92 -4.34,13.77 -6.42,27.9 -6.42,42.05 0,16.4 2.63,32.23 7.73,47.48 5.09,15.28 12.24,29.04 21.85,40.9 9.63,11.88 20.93,21.49 34.31,28.46 13.18,7.16 28.07,10.76 44.47,10.76 16.4,0 30.92,-3.6 43.53,-10.76 12.63,-6.97 23.18,-16.19 31.67,-27.49 8.49,-11.3 14.7,-24.14 19.04,-38.29 4.15,-14.13 6.21,-28.25 6.21,-42.38 0,-14.7 -2.27,-29.4 -6.6,-44.29 -4.53,-14.91 -11.5,-28.29 -20.72,-40.53 -9.24,-12.24 -20.93,-22.03 -34.88,-29.58 -13.95,-7.55 -30.34,-11.3 -49,-11.3z"/>
  <path class="fil1" d="M997.01 3997.11c0,44.99 -9.74,91.1 -29.23,138.37 -19.47,47.27 -49.56,95.97 -89.94,146.4 -36.95,47.26 -79.36,90.5 -126.63,129.76 -47.54,39.54 -99.96,75.64 -157.26,107.99 -59.87,32.95 -118.32,57.3 -175.32,73.63 -57.01,16.33 -112.85,24.93 -167.3,26.35 -71.31,0 -130.34,-23.2 -177.03,-69.89 -46.41,-44.4 -69.9,-101.4 -70.74,-171.58 0,-52.73 8,-103.41 23.76,-151.84 15.77,-48.4 40.39,-95.97 73.34,-142.36 27.79,-38.38 59.02,-73.93 94.24,-106.27 34.96,-32.39 75.05,-61.33 120.03,-86.81 39.82,-23.49 77.35,-41.25 113.16,-53 35.8,-11.74 70.18,-18.6 103.12,-20.63l0 13.18c-32.94,-3.42 -85.64,14.63 -157.56,54.43 -43.82,23.77 -83.64,49.56 -118.88,77.36 -35.23,27.77 -67.02,59.29 -95.39,94.52 -36.38,42.39 -63.31,86.5 -80.5,132.33 -17.19,45.85 -26.07,93.41 -26.64,142.4 0,73.6 22.62,131.75 67.6,175.03 23.78,21.46 50.4,37.8 79.92,48.99 29.52,11.15 63.59,17.17 101.98,18.62 93.09,0 190.79,-28.67 293.05,-85.93 50.71,-27.53 96.25,-58.46 136.65,-92.55 40.38,-34.1 77.05,-72.19 110,-114.6 66.74,-86.78 100.54,-173.87 101.96,-260.68 0,-54.71 -21.76,-101.4 -65.59,-140.65 -43.84,-38.96 -96.82,-58.42 -159.56,-58.42 -29.8,0 -62.15,5.73 -97.11,17.47 -35.23,11.76 -73.34,30.36 -114.31,55.29 -85.64,49.86 -155.25,111.15 -209.11,183.9 -4.01,4.04 -10.89,4.87 -20.34,2.88 99.12,-127.19 194.51,-211.39 286.19,-252.38 22.91,-10.02 41.52,-18.05 55.56,-23.78 14.05,-5.72 24.64,-9.73 31.22,-11.72 28.36,-9.46 59.87,-14.06 95.12,-14.06 80.77,0 142.95,18.63 186.77,55.59 43.25,36.96 64.74,91.39 64.74,162.69zm413.53 505.33c0.57,3.17 -1.15,6.87 -5.15,10.9 -28.36,22.91 -54.71,40.67 -79.36,52.98 -24.63,12.63 -48.42,22.07 -71.04,28.1 -22.93,6 -44.69,9.43 -65.6,10.89 -20.9,1.41 -41.54,2 -61.89,2 -11.45,0 -26.34,-1.73 -44.96,-5.44 -18.63,-3.74 -40.68,-9.74 -66.19,-18.63 -25.49,-8.89 -45.25,-15.18 -59,-18.91 -14.04,-3.71 -22.92,-5.73 -26.93,-6.3 -26.36,0 -60.73,14.31 -103.12,43.24 -12.89,9.48 -25.5,18.63 -37.81,27.53 -12.34,8.56 -25.52,17.76 -38.98,27.19l-19.19 -3.16c10.61,-12.88 20.92,-24.03 30.66,-33.8 10.03,-9.74 21.5,-21.76 34.38,-36.38 13.17,-14.6 28.93,-32.94 47.55,-55.29 18.61,-22.05 42.67,-52.13 72.47,-89.65 10.04,-13.46 17.77,-24.61 22.64,-32.95 4.86,-8.28 8.59,-15.15 11.17,-20.59 2.29,-5.44 4,-10.32 5.16,-15.21 0.84,-4.87 2.29,-10.32 4.28,-16.31 5.45,-18.62 13.77,-33.83 24.36,-44.98 10.6,-11.18 20.9,-18.92 30.36,-23.49 7.44,-3.45 15.18,-3.74 22.91,-1.16 7.73,2.59 11.19,9.76 10.32,21.2 -6.01,10.89 -14.89,24.36 -26.65,40.41 -11.73,16.3 -25.21,33.51 -39.8,51.55 -14.91,18.04 -29.81,36.08 -44.98,53.84 -15.18,18.05 -29.23,34.38 -42.11,49.27 -12.9,14.9 -23.5,26.94 -31.79,36.38 -8.32,9.47 -12.9,14.35 -13.76,15.18 22.91,-12.31 46.12,-24.62 69.9,-37.51 23.49,-12.89 47.26,-25.78 71.61,-39.25 45.27,-23.78 84.8,-40.96 118.89,-52.13 34.09,-11.19 62.74,-16.91 86.21,-17.76 22.93,0 35.53,8.89 37.53,26.36 0,14.89 -7.15,22.33 -21.19,22.33 -8.31,0 -17.47,-1.15 -27.78,-3.15 -10.6,-2.01 -19.48,-3.71 -26.94,-5.16 -41.53,0 -83.92,9.76 -127.18,29.52 -13.47,7.44 -25.5,14.06 -35.51,20.05 -10.03,6.02 -18.63,12.62 -25.22,19.2 46.69,18.91 86.8,32.06 120.32,39.54 33.52,7.44 61.31,12.88 82.78,16.01 8.3,1.44 18.62,2.61 31.52,4.02 12.88,1.42 28.63,0.87 47.55,-2.29 18.62,-3.16 40.11,-9.73 64.45,-20.33 24.35,-10.6 52.13,-27.23 83.94,-50.14 2,-1.44 4.29,-2.29 6.6,-2.58 2.3,-0.29 3.71,1.42 4.58,4.86zm350.79 0.87c4.58,-4.89 8.29,-3.73 10.89,3.16 0,6 -1.72,9.44 -4.88,10.87 -45.26,31.22 -91.66,58.15 -138.93,81.06 -47.56,22.92 -96.83,34.68 -148.09,35.23 -13.47,0 -26.36,-1.71 -38.12,-4.83 -11.73,-3.45 -21.77,-8.6 -30.65,-15.21 -8.87,-6.87 -15.47,-15.47 -20.33,-26.07 -4.57,-10.32 -6.31,-22.63 -4.86,-36.67 2,-17.48 7.44,-36.09 16.89,-55.26 9.45,-19.21 26.35,-38.41 50.71,-57.88 12.3,-10.02 25.21,-19.19 38.67,-27.51 13.46,-7.99 26.92,-15.17 40.68,-21.17 13.75,-6.03 27.21,-10.61 40.1,-14.07 12.89,-3.43 24.64,-5.44 35.23,-6.02 21.48,0 32.95,10.03 34.38,30.38 0,9.44 -3.72,18.6 -11.45,28.07 -7.74,9.44 -17.48,18.05 -28.93,25.78 -11.47,7.73 -23.77,14.32 -37.25,19.76 -13.46,5.44 -25.78,8.3 -36.67,9.17 -7.44,0 -12.59,-1.15 -15.47,-3.16 -3.15,-2 -5.14,-4.57 -6.58,-8.02 -4.01,-9.44 -2.58,-16.59 4.58,-21.78 7.16,-4.86 15.76,-7.44 25.78,-7.44 1.43,0 4.58,0.57 10.03,1.44 5.44,0.86 12.6,2.29 22.07,3.7 4.29,0.57 9.16,-0.55 14.89,-3.12 5.74,-2.59 10.89,-6.03 15.18,-10.32 4.3,-4.03 7.45,-8.6 9.45,-13.46 2.01,-4.87 2.01,-9.47 0,-13.77 -3.43,-4.57 -6.58,-7.44 -9.16,-8.6 -2.58,-0.83 -8.31,-1.41 -17.18,-1.41 -12.9,0 -28.08,3.99 -45.85,12.02 -18.04,8.3 -36.08,20.33 -54.13,36.37 -34.38,32.96 -51.56,62.19 -51.56,87.1 0,22.9 7.73,39.82 22.92,50.97 15.18,11.18 36.66,16.63 65.03,16.63 20.91,0 46.11,-4.58 76.2,-13.77 30.08,-8.86 59.59,-20.62 88.53,-34.67 9.44,-4.87 17.17,-9.15 23.77,-13.17 6.3,-4.01 12.32,-7.71 17.77,-11.15 5.44,-3.17 10.6,-6.9 16.03,-10.61 5.43,-3.73 12.03,-7.73 20.34,-12.6zm473.96 2c1.44,5.45 0,9.16 -4.29,11.18 -46.41,28.92 -91.1,53.85 -133.79,74.18 -42.67,20.63 -79.92,30.93 -111.72,30.93 -36.38,0 -55.56,-27.18 -57.57,-81.9 -6.02,3.42 -15.48,8.6 -27.79,15.76 -12.32,7.15 -25.5,14.31 -39.25,21.47 -14.03,7.44 -27.78,14.04 -41.54,19.78 -13.76,5.72 -24.91,8.86 -33.8,9.73 -12.89,1.42 -24.34,-0.29 -34.94,-4.86 -10.61,-4.86 -17.2,-14.63 -19.77,-29.52 0,-29.49 27.5,-65.86 82.78,-109.14 28.37,-20.91 55.57,-36.66 81.07,-47.53 25.51,-10.63 46.98,-16.05 64.47,-16.05 24.91,-0.87 37.81,5.16 38.66,18.05 0,12.31 -4.31,22.05 -13.17,29.49 -6.88,6.03 -15.47,8.89 -25.49,8.89 -0.57,-0.58 -1.15,-2 -2.02,-4.02 -0.57,-1.42 -1.13,-2.84 -1.7,-4.57 -0.87,-1.71 -1.71,-4 -3.17,-6.58 -3.99,-10.03 -12.02,-15.47 -24.33,-16.05 -26.07,0 -56.73,14.89 -91.95,44.4 -33.52,28.35 -50.43,53.84 -50.43,76.76 0,5.44 0.86,10.32 2.86,14.63 2.01,4.28 5.73,6.86 11.18,7.73 18.92,1.41 37.53,-1.73 56.15,-9.17 18.62,-7.46 38.09,-18.35 59.02,-32.35 8.87,-6.03 24.05,-20.91 45.54,-44.41 13.46,-16.33 25.21,-24.07 35.24,-23.2 8.29,0 12.32,3.45 12.32,10.03 0,6.03 -5.73,19.21 -17.2,39.54 -10.89,18.62 -16.32,32.35 -16.32,41.24 0,24.91 12.03,37.81 36.38,38.38 21.48,0 43.54,-3.44 65.88,-10.03 22.06,-6.57 42.98,-14.88 62.74,-24.35 19.48,-9.44 36.66,-18.63 51.83,-27.78 15.19,-8.89 26.08,-15.76 32.96,-20.62 2,-2 4,-3.44 6.01,-4.56 2,-0.88 3.73,0.57 5.15,4.56zm229.34 101.12c-38.39,0 -57.59,-20.33 -57.59,-60.74 0,-7.45 1.42,-16.3 4.02,-26.33 2.58,-10.06 5.72,-17.79 9.16,-23.23 -12.03,7.47 -25.21,13.75 -39.25,18.62 -14.32,5.16 -28.64,9.76 -42.69,13.76 -14.02,4.03 -28.06,7.74 -41.81,11.19 -13.75,3.42 -26.64,7.15 -38.95,11.15 -6.03,7.48 -12.62,14.92 -19.78,22.66 -7.16,7.73 -13.76,14.88 -20.33,20.91 -6.31,6 -11.74,10.89 -16.62,15.17 -4.58,4 -7.46,6 -8.87,6 -0.87,0 -3.16,-1.13 -7.16,-3.42 -4.02,-2.58 -6.02,-5.15 -6.02,-7.73 0,-4.86 2.86,-12.6 8.87,-23.49 6.02,-10.61 16.03,-25.49 29.51,-44.4 10.6,-16.05 19.2,-29.23 25.21,-39.25 6.02,-10.02 10.89,-18.63 14.04,-25.49 3.45,-6.6 6.3,-12.59 8.6,-17.47 2.58,-4.89 6.01,-10.6 10.89,-16.63 2.58,-4.02 8.01,-7.44 16.02,-10.31 8.03,-2.58 13.77,-4.58 17.2,-6.03 7.45,0 12.6,2 15.76,6.03 3.13,4.29 3.43,9.15 1.41,15.17 -2.58,7.45 -9.73,17.77 -21.19,30.94 -11.44,13.17 -22.62,30.65 -33.52,52.13 10.04,-3.44 22.08,-7.15 36.09,-11.17 13.76,-4.01 28.07,-8.28 42.99,-13.15 14.59,-4.89 29.2,-9.76 43.24,-14.92 14.04,-4.87 26.64,-10.03 37.53,-15.47 12.9,-16.04 26.08,-29.22 39.81,-39.24 13.75,-10.04 24.64,-15.19 32.95,-15.19 3.15,0 6.01,4.3 8.02,13.18 0,0 -10.32,12.31 -31.22,37.26 -19.78,24.32 -29.81,47.24 -30.38,68.73 0,24.36 16.9,37.84 50.42,40.41 7.45,0.84 18.05,0 32.09,-2.01 13.74,-2.02 29.78,-6.03 48.41,-11.76 18.62,-5.73 38.67,-13.18 60.16,-22.62 21.49,-9.46 43.25,-21.5 65.61,-36.38 1.42,0 3.15,-0.29 5.14,-0.58 2.01,-0.29 3.44,1.7 4.87,5.74 1.43,1.99 1.43,3.71 0,5.71 -1.43,2.02 -2.57,4.02 -4.01,5.44 -51.28,30.09 -97.1,52.13 -137.8,65.89 -40.96,14.06 -77.91,20.91 -110.85,20.91zm817.71 -95.97c0,5.45 -1.13,9.16 -3.16,11.19 -46.41,30.06 -88.23,52.43 -125.74,66.44 -37.55,14.34 -69.06,22.92 -94.54,25.5 -9.44,1.44 -18.63,1.44 -28.07,0.57 -9.45,-1.12 -18.05,-3.73 -25.5,-7.73 -7.45,-4 -13.46,-10.03 -18.05,-18.34 -4.88,-8.02 -7.17,-18.63 -7.17,-32.08 0,-14.9 5.72,-32.36 17.19,-52.14 11.45,-19.76 23.21,-37.22 35.23,-52.13 -9.45,3.44 -20.05,7.48 -32.08,11.75 -12.32,4.3 -25.22,8.61 -38.66,12.61 -4.6,9.46 -10.32,18.62 -16.91,28.06 -6.87,9.47 -14.61,19.78 -23.49,30.38 -51.84,62.17 -105.41,93.39 -160.71,94.26 -36.96,0 -55.86,-18.92 -56.43,-56.75 0,-17.48 6.59,-38.09 19.47,-61.88 13.18,-23.49 29.79,-50.39 50.14,-80.49 13.46,-18.92 26.63,-36.38 38.95,-52.13 12.32,-15.76 22.63,-32.64 30.95,-50.14 9.44,-19.46 21.19,-32.94 35.22,-40.38 14.05,-7.44 26.64,-12.6 37.54,-15.17 4.57,-1.46 10.31,-2.32 17.17,-3.17 6.6,-0.58 10.32,3.17 10.89,11.18 0,7.45 -6.29,18.34 -19.18,32.34 -12.9,14.07 -30.95,31.81 -54.44,52.73 -31.78,28.35 -58.43,58.42 -80.22,90.22 -22.04,32.1 -34.64,61.04 -38.08,86.52 -1.44,12.88 1.41,24.07 8.57,33.8 7.18,9.74 20.64,14.06 40.98,12.6 18.92,-1.41 37.25,-8.02 54.72,-20.33 17.47,-12.02 34.94,-30.93 52.43,-56.43 3.42,-4.57 6.29,-8.89 8.57,-12.62 2.32,-3.71 4.03,-7.45 5.44,-11.44 -14.59,6 -26.62,9.15 -36.09,9.73 -9.44,0.87 -18.04,0.58 -25.48,-0.86 -2.01,-0.55 -4.3,-1.71 -7.46,-3.42 -3.15,-1.73 -6.02,-4.31 -8.59,-7.73 -2.58,-3.17 -4.58,-7.16 -5.44,-11.48 -1.13,-4.28 -1.13,-9.15 0.28,-14.6 3.45,-14.05 12.6,-26.36 27.5,-36.96 14.62,-10.61 30.95,-17.2 48.42,-19.75 8.88,-1.45 17.47,-1.45 26.36,-0.58 8.59,1.13 16.03,3.99 22.04,8.31 6.03,4.28 9.75,10.6 11.18,18.6 1.42,8.02 -0.57,18.9 -6.02,32.37 26.93,-7.44 49.56,-16.04 67.6,-25.78 18.05,-9.73 32.95,-16.33 44.4,-19.75 8.89,0 13.18,3.14 13.18,9.15 0,5.44 -10.89,20.04 -32.36,44.4 -18.9,24.33 -28.93,47.27 -30.37,68.74 0,13.46 2.86,24.64 8.59,32.95 5.73,8.32 14.9,13.18 27.78,14.6 9.46,0 21.49,-1.12 36.09,-3.15 14.34,-2.01 30.39,-5.71 48.43,-11.15 17.75,-5.45 36.66,-13.18 57,-23.79 20.33,-10.31 40.38,-23.78 60.74,-40.67 0.56,-0.86 3.13,-1.16 8,-1.16 1.44,0 2.31,1.71 3.16,5.15zm-348.63 -41.53c9.47,-19.49 8.02,-34.1 -4,-43.53 -6.89,-5.44 -14.62,-7.48 -22.92,-6.61 -8.3,1.16 -15.19,4.31 -20.62,9.74 -5.44,5.44 -9.17,11.17 -11.17,17.2 -2.01,6 -1.44,12.59 2,19.17 4.87,10.06 13.18,14.63 25.5,13.47 12.04,-0.84 22.36,-4 31.22,-9.44zm2051.51 109.13c32.38,0 62.18,-2.58 89.1,-7.73 26.93,-4.86 53.85,-13.76 80.78,-26.07 26.94,-12.3 55.3,-28.94 84.81,-49.56 29.49,-20.62 62.72,-46.69 99.12,-78.21l13.16 4.03c-39.25,36.94 -75.34,68.45 -108.28,93.94 -32.94,25.51 -65.31,46.14 -96.54,61.61 -31.23,15.46 -62.74,26.35 -94.25,32.93 -31.8,6.32 -65.87,8.9 -102.25,7.45 -36.38,-0.58 -69.63,-6.28 -99.99,-16.88 -30.35,-10.9 -56.42,-26.07 -77.91,-45.28 -21.5,-19.21 -38.38,-42.11 -50.42,-69.31 -12.32,-26.95 -18.61,-57.3 -19.18,-90.81 0,-20.9 1.7,-41.25 5.15,-61.03 3.15,-19.76 9.15,-40.96 17.47,-63.31 8.31,-22.05 19.76,-46.69 34.39,-73.6 14.59,-26.95 32.93,-57.88 55.28,-93.13 -16.33,12.34 -34.38,27.81 -54.71,46.98 -20.35,19.2 -41.83,40.4 -65.03,63.6 -23.2,23.2 -47.84,48.14 -73.92,74.19 -26.07,26.36 -52.43,53 -79.36,79.95 -8.86,8.85 -20.33,20.61 -34.94,35.21 -14.6,14.89 -30.09,30.65 -46.98,47.56 -16.88,16.89 -33.8,34.1 -51.26,51.27 -17.48,17.2 -34.09,32.96 -49.57,46.98 -15.76,14.05 -29.23,25.78 -40.68,35.25 -11.45,9.44 -19.18,14.6 -23.2,15.18l-16.05 -2.01c-4.87,0 -5.44,-9.75 -2,-29.23 3.15,-19.49 9.46,-44.7 18.62,-75.34 9.17,-30.65 20.34,-64.19 33.52,-101.12 12.88,-36.66 26.94,-72.22 41.82,-106.56 8.89,-20.36 21.2,-46.98 37.55,-79.95 16.02,-32.95 34.94,-66.74 56.42,-101.99 -31.79,24.94 -69.32,57.59 -113.14,97.41 -43.84,40.12 -99.4,88.23 -166.72,144.11 -28.37,24.9 -56.44,48.68 -84.23,70.75 -28.06,22.33 -55.86,42.95 -83.66,61.58 -55.84,39.25 -110.84,70.76 -164.72,95.1 -53.85,24.35 -106.27,36.37 -157.55,36.37 -49.27,0 -89.94,-12.02 -122.32,-36.37 -31.8,-24.33 -47.84,-55.29 -48.41,-93.1 0,-74.2 45.54,-148.1 136.34,-222.28 87.37,-70.18 169.3,-105.14 245.5,-105.14 4.87,0 10.03,0.58 15.76,2 5.72,1.42 11.16,3.45 16.33,5.73 4.87,2.29 9.45,5.44 13.45,9.44 4.03,4.31 6.32,8.89 6.89,14.34 0,11.44 -5.43,22.05 -16.62,31.81 -11.17,9.73 -22.33,14.88 -33.8,15.72 -4.01,-18.88 -8.31,-30.93 -12.6,-36.09 -4.29,-4.87 -12.32,-8.86 -23.78,-11.44 -16.33,-4.03 -36.09,-2 -59.58,6 -23.78,8.03 -47.27,18.62 -70.76,32.09 -23.49,13.46 -45.24,28.06 -65.03,43.54 -20.03,15.75 -34.66,28.93 -44.1,39.53 -16.89,17.49 -30.65,38.67 -41.25,63.61 -10.89,24.9 -16.62,50.97 -17.48,77.91 0,82.19 51.84,123.16 155.83,123.16 14.61,0 31.8,-2.58 51.56,-7.99 19.47,-5.44 40.38,-12.89 62.74,-22.37 22.04,-9.44 44.96,-20.33 68.76,-32.64 23.46,-12.31 46.69,-25.79 69.61,-39.84 18.62,-10.89 38.09,-24.64 58.41,-41.24 20.35,-16.34 41.27,-34.39 63.32,-53.85 21.78,-19.5 44.7,-40.12 68.75,-62.18 23.77,-22.05 48.72,-43.83 74.2,-65.29 32.93,-27.52 62.74,-52.13 89.09,-74.22 26.05,-22.04 52.43,-44.11 78.78,-66.18 124.59,-103.12 226.59,-193.05 305.94,-269.84 9.44,0 14.6,3.74 15.17,11.18 -36.37,32.38 -71.62,68.48 -105.97,108.56 -34.39,40.12 -66.76,81.95 -96.83,125.18 -30.37,43.54 -58.16,87.66 -83.37,132.06 -25.5,44.4 -47.55,87.39 -66.74,128.92 -19.2,41.54 -34.96,80.2 -46.71,116 -11.74,36.09 -19.18,67.31 -21.76,93.68 8.31,-5.44 19.47,-14.89 33.51,-28.36 14.03,-13.46 28.36,-27.48 42.4,-42.11 14.04,-14.31 26.92,-27.49 38.39,-39.8 11.46,-12.05 18.62,-19.49 21.2,-22.08 50.69,-51.84 102.26,-104.56 155.25,-157.82 52.72,-53.02 105.42,-104.86 158.12,-155.58 59.32,-55.26 114.88,-104.24 167.3,-146.94 52.13,-42.69 98.84,-83.66 139.79,-122.9 9.47,0 14.34,3.74 15.2,11.18 -223.17,197.95 -334.6,373.54 -334.6,526.53 0,30.36 5.44,58.13 16.34,83.37 10.6,25.2 26.06,46.98 46.4,65.03 20.34,18.31 44.7,32.64 73.34,42.66 28.65,10.03 61.01,15.47 97.38,16.04zm653.01 -71.6c0,2.58 -0.28,4.86 -0.57,6.29 -0.27,1.71 -1.42,3.73 -3.43,5.73 -36.96,28.35 -70.75,46.98 -101.12,56.42 -30.37,9.45 -58.73,14.9 -84.81,16.34 -17.47,0.87 -34.38,-5.73 -50.68,-19.2 -19.5,16.91 -39.54,30.1 -59.88,39.82 -20.61,9.73 -42.69,15.46 -66.46,16.92 -14.6,0.55 -26.91,-2.61 -36.96,-9.76 -9.74,-7.16 -14.61,-17.77 -14.61,-31.77 0,-35.84 26.07,-76.21 77.92,-121.2 25.5,-21.49 49.56,-37.53 71.9,-47.54 22.07,-10.04 41.27,-15.19 57.58,-15.19 34.1,0 51.29,16.04 51.29,48.41 0,17.49 -4.59,34.95 -14.05,52.43 -9.45,17.49 -24.91,35.25 -46.4,52.71 8.88,8.9 19.76,13.18 33.22,13.18 9.47,0 20.05,-0.58 31.52,-2 11.46,-1.44 24.33,-4.28 38.38,-8.6 14.05,-4.28 30.09,-11.15 47.56,-20.33 17.47,-8.88 36.95,-21.2 58.44,-36.67 2,-1.41 4.58,-2.29 7.16,-2.29 2.58,0 4,2 4,6.32zm-174.74 -62.73c0,-6.03 -1.13,-10.61 -3.43,-13.18 -2.58,-2.58 -7.45,-4.31 -14.91,-5.15 -14.02,0 -26.63,6.57 -37.81,19.74 -11.18,13.18 -17.19,27.79 -18.62,44.12 0,24.91 4.58,41.25 14.05,49.56 40.38,-32.35 60.72,-64.16 60.72,-95.09zm-75.92 111.14c-6.59,-6.58 -11.45,-14.9 -14.03,-24.36 -2.87,-9.44 -4.02,-19.18 -3.73,-29.2 0.28,-10.06 2.01,-20.36 5.15,-30.97 3.15,-10.31 6.6,-20.33 10.61,-29.77 -12.32,2.58 -25.22,8.02 -38.97,16.04 -13.74,8.28 -26.64,17.76 -38.38,28.36 -11.75,10.89 -21.76,22.61 -29.8,34.93 -8.01,12.62 -13.16,24.93 -15.18,36.95 -1.42,12.32 0.86,21.2 6.89,27.24 6.01,6 14.31,9.44 24.33,10.32 28.36,0 59.58,-13.18 93.1,-39.54zm792.23 -52.44c0.58,3.17 -1.15,6.87 -5.14,10.9 -28.36,22.91 -54.72,40.67 -79.36,52.98 -24.62,12.63 -48.41,22.07 -71.03,28.1 -22.93,6 -44.7,9.43 -65.6,10.89 -20.91,1.41 -41.55,2 -61.88,2 -11.46,0 -26.36,-1.73 -44.98,-5.44 -18.62,-3.74 -40.68,-9.74 -66.18,-18.63 -25.5,-8.89 -45.26,-15.18 -59,-18.91 -14.05,-3.71 -22.92,-5.73 -26.94,-6.3 -26.35,0 -60.72,14.31 -103.12,43.24 -12.89,9.48 -25.5,18.63 -37.82,27.53 -12.32,8.56 -25.5,17.76 -38.97,27.19l-19.18 -3.16c10.61,-12.88 20.92,-24.03 30.65,-33.8 10.03,-9.74 21.5,-21.76 34.38,-36.38 13.17,-14.6 28.93,-32.94 47.54,-55.29 18.63,-22.05 42.69,-52.13 72.49,-89.65 10.04,-13.46 17.77,-24.61 22.63,-32.95 4.87,-8.28 8.59,-15.15 11.18,-20.59 2.29,-5.44 4,-10.32 5.16,-15.21 0.84,-4.87 2.29,-10.32 4.28,-16.31 5.44,-18.62 13.77,-33.83 24.35,-44.98 10.6,-11.18 20.91,-18.92 30.36,-23.49 7.45,-3.45 15.18,-3.74 22.91,-1.16 7.74,2.59 11.19,9.76 10.32,21.2 -6.02,10.89 -14.89,24.36 -26.64,40.41 -11.74,16.3 -25.22,33.51 -39.8,51.55 -14.92,18.04 -29.81,36.08 -44.99,53.84 -15.17,18.05 -29.23,34.38 -42.11,49.27 -12.89,14.9 -23.49,26.94 -31.78,36.38 -8.32,9.47 -12.91,14.35 -13.77,15.18 22.92,-12.31 46.12,-24.62 69.9,-37.51 23.49,-12.89 47.26,-25.78 71.61,-39.25 45.28,-23.78 84.81,-40.96 118.9,-52.13 34.09,-11.19 62.74,-16.91 86.2,-17.76 22.93,0 35.54,8.89 37.54,26.36 0,14.89 -7.15,22.33 -21.2,22.33 -8.3,0 -17.47,-1.15 -27.77,-3.15 -10.6,-2.01 -19.49,-3.71 -26.94,-5.16 -41.53,0 -83.92,9.76 -127.19,29.52 -13.46,7.44 -25.49,14.06 -35.51,20.05 -10.03,6.02 -18.62,12.62 -25.21,19.2 46.69,18.91 86.79,32.06 120.3,39.54 33.52,7.44 61.32,12.88 82.79,16.01 8.3,1.44 18.62,2.61 31.51,4.02 12.88,1.42 28.64,0.87 47.55,-2.29 18.63,-3.16 40.11,-9.73 64.45,-20.33 24.36,-10.6 52.13,-27.23 83.95,-50.14 2,-1.44 4.28,-2.29 6.6,-2.58 2.29,-0.29 3.71,1.42 4.57,4.86zm268.85 -280.15c0,0.84 -71.02,82.19 -213.12,244.64 12.89,-6.61 25.5,-13.47 38.38,-20.36 12.9,-6.59 25.79,-13.74 39.25,-21.18 32.38,-14.06 61.89,-21.5 87.96,-22.08 28.35,0 43.54,12.31 45.54,37.26 0,16.33 -13.46,38.95 -40.39,67.9 -12.89,13.44 -26.91,25.49 -42.38,36.66 -15.76,11.15 -33.24,22.62 -52.73,34.09 -38.95,20.34 -70.18,30.65 -93.95,31.2 -5.44,0 -9.74,-0.84 -13.17,-2.84 -3.16,-2.02 -6.59,-4.87 -10.04,-8.31 -6.02,-6.03 -9.15,-13.77 -9.15,-23.2 0,-18.93 6.29,-28.94 19.19,-30.39 6.6,0 11.17,2.02 13.17,6.02 2,2.87 4.87,7.74 8.01,14.35 4.87,10.03 15.19,15.18 31.52,15.18 20.91,0 50.42,-16.34 88.81,-48.7 39.24,-30.1 58.71,-57.03 58.71,-80.81 0,-10.58 -12.02,-17.18 -36.37,-19.18 -22.92,0 -46.12,7.44 -69.9,22.34 -9.44,6.02 -23.2,16.33 -41.83,31.22 -18.62,14.92 -41.54,34.09 -69.32,57.58 -34.96,29.52 -71.04,64.74 -108,105.72 -36.95,40.67 -75.92,87.95 -116.3,142.08 -68.76,95.39 -106.27,156.71 -112.3,183.91l0 36.37c0,9.47 -3.44,16.04 -10.02,20.08 -5.45,3.99 -11.74,6.57 -19.2,7.99 -4,0 -8.03,-0.26 -11.74,-0.84 -3.73,-0.87 -7.15,-2.58 -10.31,-5.15 -6.88,-3.16 -11.19,-8.89 -13.18,-17.2 0,-12.03 4.3,-22.92 13.18,-32.35 7.15,-13.47 13.17,-23.21 17.47,-29.52 4.31,-6.58 6.87,-10.32 7.73,-11.74 21.5,-39.82 53.01,-86.8 93.96,-141.53 40.96,-54.71 92.25,-117.73 153.55,-189.05 28.93,-34.39 71.9,-83.66 128.91,-147.55 57.01,-63.87 129.48,-143.77 217.71,-239.48 8.87,-8.86 16.33,-13.45 22.34,-14.03 3.16,0 6.02,3.74 8.01,10.9zm544.72 283.01c2.6,-1.44 5.15,-2.87 7.47,-4.56 2.29,-1.74 3.99,-0.59 5.44,3.69 2,4.61 0.56,8.9 -4.87,12.9 -24.35,18.33 -48.72,34.66 -73.34,48.98 -24.64,14.63 -48.13,26.64 -70.75,36.66 -22.65,9.76 -43.25,16.91 -62.17,21.78 -18.91,4.59 -34.66,6.59 -47.55,6.03 -8.02,-0.87 -16.34,-2.87 -24.64,-6.03 -8.29,-3.44 -15.76,-8.56 -22.05,-15.17 -6.6,-6.87 -11.76,-15.76 -15.76,-26.65 -4.29,-10.61 -6.02,-23.78 -5.15,-39.25 -8.02,8.89 -17.76,17.48 -29.23,26.36 -11.45,8.9 -23.49,16.63 -36.38,23.21 -12.89,6.61 -25.2,12.05 -37.24,16.33 -12.32,4 -23.21,6 -32.65,6 -10.6,0 -20.91,-3.42 -30.36,-10.57 -9.46,-7.19 -14.05,-18.34 -14.05,-34.09 -0.84,-22.92 9.44,-45.57 30.37,-67.61 9.46,-10.05 23.77,-22.36 43.54,-36.96 19.48,-14.63 44.4,-31.52 74.77,-50.98 4,0 6.6,1.41 8.02,4.58 1.42,3.15 0.86,6.57 -1.16,10.6 -8.86,5.41 -17.47,11.16 -26.06,17.17 -8.88,6.03 -18.05,12.88 -27.5,20.33 -16.91,14.05 -29.23,27.52 -36.96,39.82 -7.73,12.31 -12.02,24.36 -13.46,35.8 -2.01,20.33 4.3,32.1 19.2,35.54 12.02,2.59 26.07,-0.57 41.83,-9.76 15.76,-8.85 33.8,-21.46 54.14,-37.79 7.44,-6.03 16.61,-15.19 27.77,-27.52 11.18,-12.02 24.36,-28.36 39.82,-49.27 23.79,-31.23 40.97,-46.69 51.56,-46.69 8.88,0 13.46,3.73 14.33,11.17 0,7.45 -12.88,22.92 -38.39,46.69 -24.33,22.64 -36.36,42.13 -36.36,58.46 0,22.92 4,39.5 11.73,49.56 7.74,10.03 18.05,17.47 31.52,22.33 18.89,6.03 40.09,5.16 63.29,-1.99 23.22,-7.48 49,-18.63 77.36,-33.52 11.45,-6.03 24.91,-13.46 40.38,-22.37 15.47,-8.57 30.08,-19.75 43.53,-33.23zm284.92 -2c0.86,4.87 -0.29,8.58 -2.87,11.16 -55.86,36.37 -104.56,63.02 -145.52,80.23 -40.97,17.17 -80.5,26.07 -118.33,26.9 -46.41,0 -69.9,-24.03 -70.74,-71.89 0,-29.52 17.18,-64.16 51.56,-103.98 35.8,-37.83 66.74,-57.01 92.81,-57.59 6.02,0 12.88,1.45 20.34,4.57 7.44,3.16 11.74,11.77 13.17,25.8 0,6.02 -1.72,12.04 -4.87,18.04 -3.45,6.02 -8.02,12.34 -13.75,18.62 -5.72,6.62 -12.03,12.89 -19.19,19.21 -7.18,6.58 -14.05,12.3 -20.91,17.76 -10.03,9.44 -21.19,18.63 -33.52,26.94 -12.04,8.28 -25.8,16.59 -41.25,24.61 -1.44,8.89 -0.29,14.9 2.85,18.63 3.44,3.74 8.89,8.31 16.33,13.77 11.47,7.44 24.07,11.18 37.53,11.18 22.06,0 52.73,-6.03 91.38,-17.79 38.69,-11.72 83.66,-34.93 134.94,-69.31 2.01,-2 4.29,-2.87 6.59,-2.58 2.29,0.29 3.44,2.29 3.44,5.73zm-203.98 -73.63c0,-3.44 -4.28,-6.32 -13.17,-8.31 -11.45,0 -26.63,10.6 -45.54,31.51 -9.46,9.47 -16.33,19.5 -21.2,30.1 -4.85,10.86 -7.16,20.04 -7.16,27.48 1.42,0 5.72,-1.15 13.16,-3.7 7.47,-2.32 13.47,-5.18 18.36,-8.6 17.48,-10.02 30.65,-21.5 39.8,-34.68 9.17,-13.17 14.34,-24.35 15.75,-33.8zm442.47 176.75c-38.38,0 -57.58,-20.33 -57.58,-60.74 0,-7.45 1.42,-16.3 4.02,-26.33 2.58,-10.06 5.73,-17.79 9.15,-23.23 -12.02,7.47 -25.2,13.75 -39.25,18.62 -14.31,5.16 -28.63,9.76 -42.68,13.76 -14.03,4.03 -28.07,7.74 -41.81,11.19 -13.76,3.42 -26.65,7.15 -38.96,11.15 -6.02,7.48 -12.61,14.92 -19.77,22.66 -7.16,7.73 -13.77,14.88 -20.34,20.91 -6.31,6 -11.75,10.89 -16.61,15.17 -4.58,4 -7.46,6 -8.87,6 -0.87,0 -3.16,-1.13 -7.16,-3.42 -4.02,-2.58 -6.02,-5.15 -6.02,-7.73 0,-4.86 2.86,-12.6 8.86,-23.49 6.02,-10.61 16.04,-25.49 29.51,-44.4 10.61,-16.05 19.21,-29.23 25.22,-39.25 6.02,-10.02 10.89,-18.63 14.04,-25.49 3.45,-6.6 6.31,-12.59 8.59,-17.47 2.59,-4.89 6.02,-10.6 10.88,-16.63 2.6,-4.02 8.04,-7.44 16.04,-10.31 8.02,-2.58 13.77,-4.58 17.2,-6.03 7.44,0 12.6,2 15.76,6.03 3.13,4.29 3.42,9.15 1.41,15.17 -2.58,7.45 -9.74,17.77 -21.2,30.94 -11.43,13.17 -22.62,30.65 -33.51,52.13 10.03,-3.44 22.08,-7.15 36.09,-11.17 13.76,-4.01 28.07,-8.28 42.98,-13.15 14.6,-4.89 29.22,-9.76 43.25,-14.92 14.04,-4.87 26.64,-10.03 37.53,-15.47 12.89,-16.04 26.08,-29.22 39.81,-39.24 13.75,-10.04 24.64,-15.19 32.95,-15.19 3.15,0 6.02,4.3 8.02,13.18 0,0 -10.32,12.31 -31.22,37.26 -19.78,24.32 -29.82,47.24 -30.39,68.73 0,24.36 16.91,37.84 50.43,40.41 7.44,0.84 18.05,0 32.08,-2.01 13.75,-2.02 29.79,-6.03 48.41,-11.76 18.63,-5.73 38.67,-13.18 60.17,-22.62 21.49,-9.46 43.24,-21.5 65.57,-36.38 1.44,0 3.16,-0.29 5.15,-0.58 2.02,-0.29 3.45,1.7 4.88,5.74 1.42,1.99 1.42,3.71 0,5.71 -1.43,2.02 -2.57,4.02 -4.02,5.44 -51.25,30.09 -97.07,52.13 -137.77,65.89 -40.96,14.06 -77.92,20.91 -110.86,20.91zm798.51 -103.99c0.56,3.17 -1.15,6.87 -5.15,10.9 -28.35,22.91 -54.71,40.67 -79.36,52.98 -24.62,12.63 -48.42,22.07 -71.04,28.1 -22.92,6 -44.7,9.43 -65.61,10.89 -20.89,1.41 -41.54,2 -61.87,2 -11.45,0 -26.36,-1.73 -44.97,-5.44 -18.62,-3.74 -40.68,-9.74 -66.18,-18.63 -25.5,-8.89 -45.27,-15.18 -59,-18.91 -14.05,-3.71 -22.92,-5.73 -26.94,-6.3 -26.36,0 -60.73,14.31 -103.1,43.24 -12.89,9.48 -25.5,18.63 -37.82,27.53 -12.32,8.56 -25.51,17.76 -38.97,27.19l-19.18 -3.16c10.61,-12.88 20.91,-24.03 30.65,-33.8 10.03,-9.74 21.5,-21.76 34.38,-36.38 13.17,-14.6 28.93,-32.94 47.54,-55.29 18.6,-22.05 42.67,-52.13 72.45,-89.65 10.05,-13.46 17.79,-24.61 22.65,-32.95 4.87,-8.28 8.58,-15.15 11.16,-20.59 2.31,-5.44 4.02,-10.32 5.17,-15.21 0.84,-4.87 2.3,-10.32 4.29,-16.31 5.44,-18.62 13.76,-33.83 24.34,-44.98 10.6,-11.18 20.91,-18.92 30.37,-23.49 7.45,-3.45 15.19,-3.74 22.92,-1.16 7.73,2.59 11.18,9.76 10.31,21.2 -6.02,10.89 -14.88,24.36 -26.65,40.41 -11.73,16.3 -25.2,33.51 -39.79,51.55 -14.92,18.04 -29.81,36.08 -44.98,53.84 -15.19,18.05 -29.24,34.38 -42.12,49.27 -12.89,14.9 -23.49,26.94 -31.8,36.38 -8.31,9.47 -12.89,14.35 -13.76,15.18 22.93,-12.31 46.14,-24.62 69.91,-37.51 23.49,-12.89 47.25,-25.78 71.61,-39.25 45.28,-23.78 84.81,-40.96 118.9,-52.13 34.07,-11.19 62.72,-16.91 86.2,-17.76 22.92,0 35.53,8.89 37.55,26.36 0,14.89 -7.16,22.33 -21.2,22.33 -8.31,0 -17.48,-1.15 -27.78,-3.15 -10.6,-2.01 -19.49,-3.71 -26.94,-5.16 -41.53,0 -83.94,9.76 -127.18,29.52 -13.47,7.44 -25.49,14.06 -35.52,20.05 -10.04,6.02 -18.62,12.62 -25.22,19.2 46.68,18.91 86.8,32.06 120.31,39.54 33.52,7.44 61.32,12.88 82.78,16.01 8.31,1.44 18.63,2.61 31.52,4.02 12.88,1.42 28.64,0.87 47.56,-2.29 18.62,-3.16 40.1,-9.73 64.44,-20.33 24.36,-10.6 52.13,-27.23 83.95,-50.14 2,-1.44 4.28,-2.29 6.59,-2.58 2.29,-0.29 3.72,1.42 4.58,4.86zm376.01 4.03c0,2.58 -0.29,4.86 -0.58,6.29 -0.29,1.71 -1.43,3.73 -3.44,5.73 -36.97,28.35 -70.74,46.98 -101.13,56.42 -30.35,9.45 -58.71,14.9 -84.78,16.34 -17.48,0.87 -34.38,-5.73 -50.71,-19.2 -19.47,16.91 -39.54,30.1 -59.87,39.82 -20.61,9.73 -42.67,15.46 -66.44,16.92 -14.63,0.55 -26.94,-2.61 -36.97,-9.76 -9.73,-7.16 -14.6,-17.77 -14.6,-31.77 0,-35.84 26.06,-76.21 77.91,-121.2 25.5,-21.49 49.57,-37.53 71.9,-47.54 22.07,-10.04 41.26,-15.19 57.58,-15.19 34.1,0 51.27,16.04 51.27,48.41 0,17.49 -4.58,34.95 -14.02,52.43 -9.47,17.49 -24.94,35.25 -46.41,52.71 8.86,8.9 19.76,13.18 33.22,13.18 9.45,0 20.05,-0.58 31.52,-2 11.45,-1.44 24.33,-4.28 38.38,-8.6 14.05,-4.28 30.08,-11.15 47.56,-20.33 17.48,-8.88 36.94,-21.2 58.43,-36.67 2,-1.41 4.57,-2.29 7.16,-2.29 2.57,0 4.02,2 4.02,6.32zm-174.75 -62.73c0,-6.03 -1.15,-10.61 -3.44,-13.18 -2.58,-2.58 -7.45,-4.31 -14.9,-5.15 -14.04,0 -26.64,6.57 -37.81,19.74 -11.17,13.18 -17.19,27.79 -18.62,44.12 0,24.91 4.58,41.25 14.03,49.56 40.4,-32.35 60.74,-64.16 60.74,-95.09zm-75.93 111.14c-6.58,-6.58 -11.44,-14.9 -14.02,-24.36 -2.87,-9.44 -4.02,-19.18 -3.73,-29.2 0.28,-10.06 2.01,-20.36 5.15,-30.97 3.16,-10.31 6.58,-20.33 10.61,-29.77 -12.32,2.58 -25.21,8.02 -38.97,16.04 -13.76,8.28 -26.64,17.76 -38.38,28.36 -11.75,10.89 -21.78,22.61 -29.8,34.93 -8.03,12.62 -13.17,24.93 -15.18,36.95 -1.42,12.32 0.86,21.2 6.87,27.24 6.03,6 14.34,9.44 24.36,10.32 28.35,0 59.57,-13.18 93.08,-39.54z"/>
  <path class="fil2 str0" d="M932.38 3834.32c-43.76,-37.04 -106.07,-55.59 -186.93,-55.59 -35.08,0 -66.71,4.75 -95.03,14.15 -6.71,2.01 -17.18,5.92 -31.32,11.6 -14.13,5.79 -32.67,13.65 -55.54,23.78 -91.66,41.11 -186.98,125.31 -286.03,252.62 9.43,2.05 16.2,1.05 20.25,-2.99 53.84,-72.8 123.61,-134.08 209.16,-183.93 41.1,-24.91 79.18,-43.31 114.2,-55.08 35.04,-11.79 67.38,-17.7 97.04,-17.7 62.64,0 115.85,19.56 159.65,58.64 43.76,39.08 65.72,85.88 65.72,140.43 -1.39,86.93 -35.4,173.82 -102.11,260.74 -33,42.46 -69.68,80.68 -110.14,114.72 -40.38,34.01 -85.88,64.83 -136.42,92.43 -102.43,57.29 -200.1,85.93 -293.07,85.93 -38.42,-1.35 -72.45,-7.59 -102.08,-18.72 -29.66,-11.09 -56.3,-27.43 -79.81,-49 -45.17,-43.11 -67.71,-101.4 -67.71,-174.85 0.65,-49.16 9.61,-96.68 26.77,-142.49 17.15,-45.79 43.93,-89.92 80.31,-132.37 28.31,-35.01 60.13,-66.51 95.54,-94.5 35.35,-27.92 74.91,-53.73 118.7,-77.29 72.09,-39.73 124.66,-57.94 157.68,-54.58l0 -13.15c-33.02,2.04 -67.37,8.96 -103.06,20.69 -35.78,11.82 -73.48,29.52 -113.22,53.07 -45.16,25.65 -85.24,54.58 -120.24,86.93 -35.06,32.33 -66.39,67.71 -94.05,106.1 -32.96,46.5 -57.39,94.01 -73.22,142.51 -15.87,48.5 -23.73,99.01 -23.73,151.56 0.61,70.08 24.25,127.34 70.77,171.81 46.47,46.47 105.36,69.73 176.81,69.73 54.58,-1.36 110.3,-10.11 167.24,-26.25 56.94,-16.21 115.37,-40.76 175.34,-73.8 57.28,-32.33 109.66,-68.21 157.18,-107.61 47.46,-39.39 89.7,-82.72 126.79,-129.83 40.41,-50.59 70.43,-99.41 89.9,-146.56 19.58,-47.15 29.35,-93.32 29.35,-138.44 0,-71.42 -21.55,-125.66 -64.7,-162.72z"/>
  <path class="fil2 str0" d="M1405.85 4497.74c-2.38,0.4 -4.54,1.19 -6.55,2.58 -31.7,22.91 -59.63,39.54 -83.87,49.97 -24.27,10.48 -45.87,17.17 -64.69,20.23 -18.87,3.03 -34.7,3.89 -47.51,2.51 -12.83,-1.35 -23.2,-2.65 -31.33,-4.04 -21.55,-3.35 -49.16,-8.73 -82.83,-16.12 -33.75,-7.44 -73.8,-20.57 -120.28,-39.44 6.75,-6.73 15.17,-13.12 25.25,-19.19 10.09,-6.1 21.89,-12.8 35.37,-20.23 43.11,-19.52 85.55,-29.29 127.33,-29.29 7.42,1.35 16.36,2.99 26.79,5.03 10.4,2.01 19.69,3.05 27.76,3.05 14.18,0 21.27,-7.43 21.27,-22.25 -2.07,-17.52 -14.54,-26.25 -37.42,-26.25 -23.62,0.65 -52.38,6.56 -86.42,17.66 -34.01,11.13 -73.61,28.5 -118.73,52.06 -24.27,13.47 -48.16,26.61 -71.75,39.42 -23.56,12.79 -46.85,25.25 -69.73,37.39 0.68,-0.7 5.24,-5.73 13.65,-15.16 8.44,-9.44 19.03,-21.56 31.81,-36.4 12.82,-14.76 26.8,-31.15 41.95,-48.97 15.16,-17.87 30.14,-35.92 44.97,-54.07 14.83,-18.22 28.13,-35.4 39.92,-51.55 11.76,-16.17 20.7,-29.64 26.79,-40.42 0.66,-11.47 -2.9,-18.56 -10.64,-21.21 -7.74,-2.69 -15.31,-2.37 -22.74,0.96 -9.42,4.74 -19.56,12.65 -30.29,23.78 -10.8,11.12 -18.88,26.11 -24.28,44.98 -2.02,6.03 -3.56,11.43 -4.58,16.18 -0.98,4.7 -2.67,9.77 -5.02,15.12 -2.34,5.43 -6.07,12.35 -11.09,20.73 -5.07,8.45 -12.64,19.38 -22.74,32.86 -29.66,37.73 -53.74,67.71 -72.28,89.94 -18.49,22.24 -34.36,40.57 -47.47,55.06 -13.15,14.52 -24.6,26.64 -34.38,36.38 -9.73,9.77 -20.03,21.08 -30.82,33.89l19.21 3c13.47,-9.44 26.42,-18.56 38.9,-27.3 12.48,-8.75 25.09,-17.81 37.9,-27.26 42.41,-28.98 76.78,-43.49 103.07,-43.49 4.08,0.71 12.93,2.91 26.79,6.6 13.78,3.68 33.49,9.95 59.12,18.7 25.6,8.75 47.64,15 66.14,18.69 18.58,3.71 33.56,5.56 45,5.56 20.21,0 40.76,-0.64 61.67,-2 20.84,-1.39 42.78,-5.09 65.68,-11.13 22.92,-6.08 46.65,-15.34 71.25,-27.8 24.56,-12.49 51.07,-30.17 79.34,-53.05 4.04,-4.07 5.72,-7.78 5.03,-11.16 -0.65,-3.34 -2.15,-4.83 -4.53,-4.53z"/>
  <path class="fil2 str0" d="M1740.86 4515.96c-5.42,3.7 -10.79,7.24 -16.19,10.62 -5.37,3.39 -11.29,7.07 -17.69,11.08 -6.42,4.04 -14.3,8.47 -23.72,13.16 -29,14.12 -58.43,25.78 -88.44,34.86 -29.96,9.1 -55.43,13.64 -76.31,13.64 -28.28,0 -49.99,-5.54 -65.19,-16.64 -15.12,-11.13 -22.71,-28.17 -22.71,-51.07 0,-24.94 17.19,-53.9 51.54,-86.92 18.19,-16.13 36.24,-28.31 54.06,-36.35 17.86,-8.13 33.18,-12.17 45.96,-12.17 8.74,0 14.5,0.51 17.18,1.53 2.71,1 5.72,3.9 9.11,8.59 2.01,4.03 2.01,8.61 0,13.64 -2.01,5.05 -5.24,9.58 -9.61,13.62 -4.41,4.08 -9.44,7.48 -15.12,10.16 -5.76,2.7 -10.63,3.7 -14.67,3 -9.44,-1.33 -16.86,-2.52 -22.25,-3.56 -5.4,-0.99 -8.79,-1.47 -10.09,-1.47 -10.11,0 -18.72,2.52 -25.77,7.58 -7.08,5.04 -8.61,12.28 -4.52,21.72 1.31,3.39 3.5,6.07 6.56,8.08 3,2.04 8.22,3.05 15.65,3.05 10.74,-0.65 22.86,-3.7 36.34,-9.1 13.52,-5.41 25.93,-11.94 37.43,-19.74 11.46,-7.71 21.01,-16.33 28.8,-25.77 7.7,-9.44 11.62,-18.84 11.62,-28.28 -1.37,-20.23 -12.78,-30.31 -34.37,-30.31 -10.8,0.71 -22.59,2.7 -35.36,6.04 -12.82,3.39 -26.13,8.08 -39.94,14.13 -13.81,6.12 -27.43,13.16 -40.92,21.23 -13.46,8.1 -26.29,17.17 -38.41,27.31 -24.28,19.53 -41.08,38.91 -50.52,58.12 -9.45,19.21 -15.16,37.55 -17.19,55.06 -1.36,14.12 0.34,26.44 5.08,36.87 4.7,10.47 11.45,19.03 20.19,25.81 8.78,6.7 19.05,11.73 30.81,15.13 11.8,3.35 24.45,5.05 37.93,5.05 51.19,-0.65 100.49,-12.49 148.04,-35.34 47.49,-22.91 93.81,-49.86 138.97,-80.85 3.34,-1.39 5.03,-5.04 5.03,-11.13 -2.71,-6.73 -6.43,-7.73 -11.13,-3.02 -8.08,4.72 -14.82,8.94 -20.2,12.62z"/>
  <path class="fil2 str0" d="M2229.95 4500.8c-2.01,0.99 -4.09,2.57 -6.05,4.52 -6.77,4.74 -17.68,11.65 -32.85,20.72 -15.17,9.13 -32.51,18.4 -52.04,27.83 -19.59,9.44 -40.44,17.51 -62.68,24.25 -22.25,6.74 -44.14,10.08 -65.65,10.08 -24.28,-0.65 -36.39,-13.47 -36.39,-38.43 0,-8.72 5.36,-22.51 16.16,-41.4 11.45,-20.24 17.14,-33.34 17.14,-39.39 0,-6.75 -3.99,-10.13 -12.08,-10.13 -10.13,-0.66 -21.91,7.08 -35.38,23.24 -21.56,23.62 -36.73,38.39 -45.46,44.47 -20.9,14.17 -40.65,24.91 -59.15,32.34 -18.54,7.4 -37.21,10.47 -56.08,9.1 -5.36,-0.66 -9.11,-3.22 -11.14,-7.58 -2,-4.38 -2.99,-9.26 -2.99,-14.69 0,-22.86 16.82,-48.47 50.52,-76.76 35.03,-29.69 65.7,-44.52 91.98,-44.52 12.12,0.7 20.2,6.08 24.24,16.22 1.36,2.65 2.34,4.89 3.04,6.56 0.67,1.66 1.32,3.19 2.01,4.54 0.68,2.02 1.33,3.39 2.03,4.04 10.08,0 18.5,-3.04 25.25,-9.1 8.73,-7.43 13.11,-17.17 13.11,-29.29 -0.65,-12.78 -13.46,-18.84 -38.36,-18.17 -17.56,0 -39.12,5.4 -64.7,16.14 -25.64,10.76 -52.53,26.64 -80.85,47.51 -55.23,43.11 -82.83,79.52 -82.83,109.12 2.66,14.83 9.22,24.61 19.65,29.3 10.48,4.72 22.1,6.39 34.91,5.08 8.78,-0.7 20.02,-3.92 33.83,-9.6 13.8,-5.74 27.62,-12.29 41.46,-19.69 13.81,-7.43 26.91,-14.7 39.41,-21.77 12.49,-7.05 21.75,-12.27 27.8,-15.66 2.03,54.61 21.23,81.9 57.57,81.9 31.7,0 68.85,-10.32 111.68,-30.82 42.77,-20.57 87.4,-45.33 133.89,-74.33 4.04,-2 5.4,-5.72 4.04,-11.12 -1.33,-4.04 -3.02,-5.52 -5.03,-4.52z"/>
  <path class="fil2 str0" d="M2575.08 4585.68c40.7,-13.78 86.7,-35.87 137.96,-66.18 1.34,-1.37 2.64,-3.05 4.01,-5.06 1.36,-2.03 1.36,-4.05 0,-6.07 -1.37,-4.01 -3.02,-5.88 -5.08,-5.54 -2.01,0.37 -3.7,0.48 -5.03,0.48 -22.25,14.82 -44.13,26.95 -65.69,36.38 -21.55,9.43 -41.59,17.03 -60.17,22.74 -18.5,5.72 -34.66,9.6 -48.46,11.63 -13.8,2.01 -24.43,2.68 -31.85,2.01 -33.67,-2.68 -50.52,-16.16 -50.52,-40.42 0.66,-21.55 10.74,-44.47 30.32,-68.68l31.33 -37.42c-2.01,-8.74 -4.7,-13.17 -8.08,-13.17 -8.13,0 -19.04,5.09 -32.85,15.18 -13.79,10.11 -27.15,23.24 -39.93,39.41 -10.8,5.44 -23.24,10.61 -37.38,15.7 -14.14,5.04 -28.68,9.91 -43.47,14.64 -14.8,4.71 -29.14,9.09 -42.94,13.14 -13.8,4.04 -25.76,7.73 -35.85,11.12 10.74,-21.55 21.82,-38.89 33.29,-52.06 11.49,-13.14 18.58,-23.39 21.26,-30.82 2.01,-6.04 1.47,-11.12 -1.52,-15.16 -3.01,-4.05 -8.25,-6.05 -15.66,-6.05 -3.38,1.36 -9.11,3.39 -17.19,6.05 -8.06,2.73 -13.46,6.06 -16.16,10.11 -4.72,6.03 -8.28,11.6 -10.63,16.69 -2.34,5.05 -5.17,10.96 -8.56,17.65 -3.38,6.78 -8.13,15.18 -14.17,25.29 -6.07,10.08 -14.46,23.22 -25.22,39.44 -13.51,18.86 -23.28,33.64 -29.35,44.45 -6.05,10.74 -9.1,18.48 -9.1,23.23 0,2.67 2.05,5.2 6.05,7.59 4.08,2.34 6.42,3.51 7.09,3.51 1.39,0 4.41,-2.03 9.11,-6.06 4.7,-4.04 10.26,-9.1 16.65,-15.18 6.43,-6.04 13.17,-12.91 20.23,-20.68 7.05,-7.75 13.64,-15.31 19.7,-22.74 12.11,-4.04 25.09,-7.73 38.9,-11.12 13.79,-3.39 27.78,-7.09 41.96,-11.13 14.16,-4.05 28.3,-8.56 42.43,-13.65 14.14,-5 27.29,-11.25 39.41,-18.65 -3.39,5.35 -6.39,13.09 -9.08,23.23 -2.71,10.11 -4.04,18.9 -4.04,26.24 0,40.45 19.21,60.62 57.58,60.62 33,0 69.93,-6.86 110.68,-20.68z"/>
  <path class="fil2 str0" d="M3278.94 4506.36c-4.7,0 -7.42,0.34 -8.09,0.99 -20.22,16.88 -40.42,30.53 -60.65,40.96 -20.2,10.43 -39.23,18.34 -57.08,23.73 -17.82,5.4 -34.04,9.1 -48.5,11.13 -14.5,2.01 -26.45,3 -35.89,3 -12.77,-1.31 -22.09,-6.17 -27.76,-14.62 -5.73,-8.47 -8.58,-19.38 -8.58,-32.86 1.33,-21.55 11.41,-44.46 30.29,-68.75 21.55,-24.22 32.35,-39.04 32.35,-44.43 0,-6.08 -4.37,-9.13 -13.15,-9.13 -11.5,3.4 -26.29,9.98 -44.47,19.74 -18.21,9.78 -40.78,18.34 -67.7,25.78 5.4,-13.47 7.42,-24.25 6.07,-32.34 -1.37,-8.08 -5.04,-14.3 -11.13,-18.68 -6.03,-4.38 -13.47,-7.09 -22.21,-8.13 -8.78,-1 -17.56,-0.83 -26.29,0.55 -17.52,2.66 -33.67,9.27 -48.46,19.69 -14.87,10.42 -23.99,22.74 -27.37,36.87 -1.33,5.4 -1.49,10.3 -0.46,14.69 1,4.35 2.86,8.22 5.52,11.6 2.73,3.39 5.56,5.91 8.61,7.56 3.04,1.7 5.56,2.87 7.58,3.53 7.41,1.4 15.83,1.69 25.27,1.05 9.44,-0.65 21.54,-4.05 36.37,-10.08 -1.36,4.01 -3.22,7.9 -5.56,11.6 -2.35,3.7 -5.22,7.9 -8.61,12.6 -17.48,25.64 -35.03,44.46 -52.55,56.64 -17.51,12.09 -35.68,18.86 -54.55,20.18 -20.21,1.33 -33.85,-2.89 -40.94,-12.63 -7.08,-9.77 -9.97,-21.02 -8.55,-33.85 3.37,-25.6 15.93,-54.41 37.86,-86.42 21.89,-31.99 48.67,-62.15 80.36,-90.45 23.57,-20.86 41.76,-38.37 54.58,-52.55 12.8,-14.15 19.19,-24.94 19.19,-32.33 -0.7,-8.09 -4.41,-11.76 -11.13,-11.11 -6.75,0.68 -12.44,1.7 -17.17,3.02 -10.77,2.7 -23.26,7.74 -37.38,15.17 -14.17,7.4 -25.95,20.88 -35.37,40.43 -8.1,17.51 -18.37,34.2 -30.81,50.02 -12.49,15.82 -25.46,33.16 -38.95,52.03 -20.19,30.29 -36.83,57.29 -50.03,80.85 -13.1,23.6 -19.69,44.16 -19.69,61.68 0.66,37.02 19.58,55.54 56.63,55.54 55.21,-0.66 108.79,-31.65 160.63,-92.97 8.79,-10.76 16.54,-20.86 23.29,-30.29 6.72,-9.43 12.49,-18.86 17.19,-28.31 13.46,-4.03 26.27,-8.24 38.35,-12.65 12.12,-4.39 22.92,-8.25 32.39,-11.63 -12.15,14.83 -23.94,32.21 -35.4,52.07 -11.45,19.91 -17.18,37.26 -17.18,52.03 0,13.52 2.35,24.19 7.09,32.21 4.7,7.93 10.75,13.9 18.17,17.81 7.42,3.98 15.82,6.44 25.3,7.44 9.39,0.99 18.82,0.82 28.27,-0.51 25.59,-2.63 57.08,-10.91 94.49,-24.9 37.38,-13.9 79.33,-36.09 125.82,-66.38 2.01,-2.05 3,-5.72 3,-11.13 -0.66,-3.35 -1.7,-5.05 -3,-5.05zm-376.94 -27.77c-12.12,0.99 -20.57,-3.56 -25.28,-13.65 -3.36,-6.73 -4.02,-13.15 -2.05,-19.21 2.05,-6.09 5.73,-11.78 11.18,-17.17 5.37,-5.42 12.26,-8.61 20.68,-9.61 8.42,-1.05 16.03,1.17 22.74,6.56 12.17,9.45 13.47,23.93 4.04,43.47 -8.78,5.39 -19.21,8.55 -31.31,9.6z"/>
  <path class="fil2 str0" d="M4907.46 4561.95c-28.6,-10.13 -53.03,-24.29 -73.22,-42.46 -20.27,-18.21 -35.78,-39.91 -46.5,-65.19 -10.79,-25.26 -16.19,-53.04 -16.19,-83.37 0,-152.92 111.48,-328.43 334.5,-526.51 -0.67,-7.37 -5.72,-11.12 -15.17,-11.12 -41.09,39.09 -87.78,80.02 -139.94,122.79 -52.22,42.77 -107.97,91.79 -167.26,147.04 -52.55,50.51 -105.31,102.43 -158.17,155.65 -52.88,53.25 -104.61,105.74 -155.13,157.61 -2.7,2.74 -9.76,10.14 -21.2,22.26 -11.47,12.12 -24.28,25.42 -38.42,39.94 -14.13,14.46 -28.26,28.42 -42.44,41.9 -14.14,13.53 -25.25,22.91 -33.38,28.31 2.7,-26.26 9.96,-57.4 21.75,-93.45 11.8,-36.04 27.29,-74.79 46.54,-116.23 19.17,-41.42 41.42,-84.36 66.67,-128.83 25.26,-44.47 53.04,-88.45 83.38,-131.87 30.31,-43.47 62.67,-85.28 96.99,-125.32 34.36,-40.11 69.73,-76.32 106.12,-108.67 -0.71,-7.37 -5.73,-11.12 -15.18,-11.12 -79.49,76.8 -181.52,166.75 -306.16,269.83 -26.3,22.26 -52.54,44.29 -78.84,66.21 -26.3,21.9 -55.92,46.64 -88.93,74.28 -25.6,21.55 -50.39,43.29 -74.32,65.19 -23.89,21.86 -46.81,42.59 -68.68,62.12 -21.92,19.55 -42.99,37.54 -63.17,54.06 -20.2,16.53 -39.77,30.17 -58.62,40.94 -22.96,14.12 -46.14,27.43 -69.73,39.92 -23.61,12.46 -46.47,23.41 -68.72,32.84 -22.22,9.44 -43.12,16.87 -62.68,22.22 -19.51,5.4 -36.68,8.07 -51.51,8.07 -103.73,0 -155.62,-41.06 -155.62,-123.26 0.63,-26.95 6.36,-52.9 17.16,-77.8 10.79,-24.91 24.6,-46.16 41.46,-63.67 9.39,-10.79 24.05,-23.93 43.91,-39.44 19.91,-15.48 41.63,-29.94 65.19,-43.47 23.59,-13.42 47.2,-24.25 70.77,-32.32 23.56,-8.1 43.47,-10.09 59.62,-6.05 11.45,2.69 19.37,6.57 23.73,11.6 4.38,5.05 8.58,17.05 12.65,35.86 11.42,-0.66 22.76,-5.87 33.85,-15.65 11.12,-9.76 16.67,-20.36 16.67,-31.81 -0.69,-5.39 -3.03,-10.13 -7.06,-14.17 -4.05,-4.05 -8.59,-7.21 -13.65,-9.61 -5.03,-2.34 -10.43,-4.2 -16.16,-5.56 -5.76,-1.3 -11.01,-2 -15.7,-2 -76.11,0 -157.99,35.05 -245.57,105.09 -90.94,74.16 -136.39,148.21 -136.39,222.32 0.65,37.75 16.86,68.72 48.45,92.97 32.39,24.25 73.15,36.38 122.32,36.38 51.19,0 103.76,-12.14 157.62,-36.38 53.95,-24.26 108.84,-55.9 164.76,-94.97 27.6,-18.87 55.37,-39.43 83.37,-61.67 27.99,-22.23 56.08,-45.77 84.38,-70.73 67.39,-55.88 122.95,-103.91 166.78,-143.99 43.77,-40.12 81.48,-72.63 113.16,-97.55 -21.59,35.03 -40.41,69.07 -56.58,102.06 -16.18,33.04 -28.67,59.63 -37.42,79.84 -14.83,34.34 -28.79,69.91 -41.91,106.63 -13.14,36.72 -24.27,70.39 -33.38,101.04 -9.08,30.66 -15.32,55.77 -18.7,75.28 -3.39,19.57 -2.69,29.31 2.04,29.31l16.17 2.03c4.04,-0.66 11.78,-5.74 23.24,-15.18 11.4,-9.38 24.92,-21.21 40.43,-35.37 15.44,-14.17 31.96,-29.78 49.52,-46.95 17.48,-17.2 34.67,-34.2 51.54,-51.07 16.83,-16.82 32.48,-32.69 46.94,-47.51 14.51,-14.8 26.13,-26.59 34.9,-35.32 26.91,-26.95 53.37,-53.56 79.33,-79.86 25.93,-26.3 50.49,-51.02 73.77,-74.27 23.25,-23.27 45,-44.46 65.19,-63.69 20.21,-19.16 38.37,-34.84 54.58,-46.98 -22.25,35.03 -40.59,66.05 -55.11,92.99 -14.46,26.92 -25.91,51.52 -34.37,73.76 -8.4,22.24 -14.3,43.28 -17.66,63.14 -3.39,19.91 -5.09,40.29 -5.09,61.15 0.71,33.73 7.08,64.02 19.25,90.97 12.11,26.95 28.93,50.03 50.52,69.21 21.56,19.21 47.48,34.2 77.81,44.98 30.34,10.73 63.67,16.52 100.06,17.17 36.38,1.33 70.4,-1.19 102.07,-7.58 31.67,-6.44 63.19,-17.35 94.52,-32.86 31.26,-15.48 63.5,-36.02 96.5,-61.64 32.97,-25.59 69.02,-56.93 108.14,-94.02l-13.16 -4.03c-36.39,31.7 -69.39,57.81 -99.02,78.34 -29.67,20.56 -57.94,37.06 -84.94,49.54 -26.89,12.48 -53.85,21.2 -80.85,26.25 -26.9,5.09 -56.58,7.6 -88.88,7.6 -36.39,-0.69 -68.9,-6.08 -97.55,-16.17z"/>
  <path class="fil2 str0" d="M5653.78 4500.28c-2.69,0 -5.04,0.7 -7.09,2.03 -21.55,15.48 -41.08,27.76 -58.6,36.87 -17.57,9.12 -33.34,15.86 -47.48,20.25 -14.17,4.35 -26.95,7.21 -38.45,8.55 -11.41,1.36 -21.87,2.04 -31.29,2.04 -13.5,0 -24.59,-4.39 -33.36,-13.16 21.55,-17.51 37.03,-35.03 46.47,-52.54 9.44,-17.51 14.18,-35.03 14.18,-52.54 0,-32.35 -17.17,-48.48 -51.55,-48.48 -16.16,0 -35.4,5.05 -57.6,15.15 -22.25,10.11 -46.17,25.93 -71.76,47.49 -51.88,45.16 -77.84,85.59 -77.84,121.27 0,14.12 4.91,24.77 14.71,31.81 9.73,7.08 22.05,10.26 36.84,9.61 23.61,-1.31 45.67,-6.9 66.23,-16.65 20.53,-9.77 40.55,-23.07 60.13,-39.94 16.16,13.46 33,19.86 50.51,19.21 26.3,-1.36 54.58,-6.72 84.9,-16.21 30.28,-9.4 64.01,-28.26 101.05,-56.56 2.01,-2.03 3.17,-3.85 3.55,-5.54 0.32,-1.7 0.53,-3.89 0.53,-6.58 0,-4.04 -1.4,-6.07 -4.08,-6.07zm-231.4 38.41c-9.46,-8.08 -14.18,-24.6 -14.18,-49.54 1.33,-16.13 7.6,-30.81 18.72,-43.9 11.13,-13.17 23.73,-19.74 37.87,-19.74 7.42,0.7 12.33,2.39 14.68,5.05 2.35,2.74 3.51,7.04 3.51,13.12 0,31.04 -20.2,62.68 -60.59,95.02zm-108.13 55.6c-10.1,-0.71 -18.21,-4.05 -24.28,-10.14 -6.1,-6.07 -8.4,-15.17 -7.07,-27.29 2.01,-12.12 7.07,-24.38 15.15,-36.87 8.07,-12.46 18.05,-24.06 29.85,-34.85 11.74,-10.77 24.56,-20.21 38.35,-28.33 13.8,-8.05 26.79,-13.43 38.94,-16.16 -4.06,9.45 -7.61,19.36 -10.62,29.8 -3.02,10.48 -4.7,20.74 -5.08,30.83 -0.32,10.12 0.81,19.9 3.55,29.33 2.67,9.44 7.41,17.51 14.18,24.26 -33.72,26.26 -64.71,39.43 -92.97,39.43z"/>
  <path class="fil2 str0" d="M6194.94 4497.74c-2.39,0.4 -4.54,1.19 -6.56,2.58 -31.69,22.91 -59.63,39.54 -83.87,49.97 -24.27,10.48 -45.87,17.17 -64.69,20.23 -18.88,3.03 -34.7,3.89 -47.51,2.51 -12.83,-1.35 -23.21,-2.65 -31.34,-4.04 -21.55,-3.35 -49.15,-8.73 -82.8,-16.12 -33.77,-7.44 -73.81,-20.57 -120.3,-39.44 6.75,-6.73 15.17,-13.12 25.26,-19.19 10.1,-6.1 21.88,-12.8 35.36,-20.23 43.09,-19.52 85.55,-29.29 127.32,-29.29 7.42,1.35 16.38,2.99 26.79,5.03 10.43,2.01 19.7,3.05 27.78,3.05 14.18,0 21.26,-7.43 21.26,-22.25 -2.06,-17.52 -14.56,-26.25 -37.42,-26.25 -23.62,0.65 -52.38,6.56 -86.42,17.66 -33.99,11.13 -73.59,28.5 -118.73,52.06 -24.27,13.47 -48.16,26.61 -71.73,39.42 -23.59,12.79 -46.86,25.25 -69.74,37.39 0.66,-0.7 5.24,-5.73 13.64,-15.16 8.45,-9.44 19.03,-21.56 31.81,-36.4 12.82,-14.76 26.78,-31.15 41.94,-48.97 15.18,-17.87 30.14,-35.92 44.98,-54.07 14.82,-18.22 28.14,-35.4 39.94,-51.55 11.73,-16.17 20.68,-29.64 26.78,-40.42 0.65,-11.47 -2.89,-18.56 -10.66,-21.21 -7.73,-2.69 -15.32,-2.37 -22.74,0.96 -9.39,4.74 -19.54,12.65 -30.28,23.78 -10.8,11.12 -18.88,26.11 -24.28,44.98 -2.02,6.03 -3.56,11.43 -4.57,16.18 -0.99,4.7 -2.68,9.77 -5.04,15.12 -2.34,5.43 -6.05,12.35 -11.09,20.73 -5.06,8.45 -12.65,19.38 -22.74,32.86 -29.66,37.73 -53.72,67.71 -72.28,89.94 -18.5,22.24 -34.36,40.57 -47.47,55.06 -13.14,14.52 -24.6,26.64 -34.37,36.38 -9.73,9.77 -20.01,21.08 -30.82,33.89l19.21 3c13.47,-9.44 26.43,-18.56 38.9,-27.3 12.48,-8.75 25.09,-17.81 37.9,-27.26 42.41,-28.98 76.78,-43.49 103.06,-43.49 4.09,0.71 12.94,2.91 26.79,6.6 13.8,3.68 33.51,9.95 59.14,18.7 25.59,8.75 47.63,15 66.14,18.69 18.58,3.71 33.55,5.56 45,5.56 20.2,0 40.76,-0.64 61.64,-2 20.88,-1.39 42.79,-5.09 65.71,-11.13 22.91,-6.08 46.63,-15.34 71.24,-27.8 24.57,-12.49 51.07,-30.17 79.33,-53.05 4.04,-4.07 5.73,-7.78 5.04,-11.16 -0.66,-3.34 -2.15,-4.83 -4.52,-4.53z"/>
  <path class="fil2 str0" d="M6460.21 4211.27c-6.05,0.7 -13.47,5.4 -22.26,14.12 -88.27,95.69 -160.82,175.51 -217.75,239.5 -56.95,64.01 -99.88,113.22 -128.85,147.57 -61.28,71.39 -112.54,134.39 -153.64,188.96 -41.07,54.61 -72.4,101.73 -93.95,141.5 -0.7,1.34 -3.22,5.2 -7.62,11.64 -4.32,6.35 -10.26,16.29 -17.64,29.77 -8.73,9.44 -13.14,20.21 -13.14,32.35 2.01,8.07 6.43,13.8 13.14,17.2 3.39,2.65 6.93,4.35 10.64,5.03 3.66,0.68 7.54,1.01 11.59,1.01 7.42,-1.35 13.85,-4.04 19.25,-8.08 6.7,-4.04 10.08,-10.78 10.08,-20.22l0 -36.36c6.03,-26.98 43.41,-88.3 112.13,-183.95 40.48,-53.9 79.16,-101.19 116.26,-141.96 37.05,-40.76 73.12,-75.95 108.13,-105.62 27.65,-23.57 50.65,-42.77 69.18,-57.63 18.56,-14.78 32.54,-25.25 41.97,-31.31 23.56,-14.77 46.85,-22.2 69.73,-22.2 24.26,1.99 36.38,8.39 36.38,19.16 0,23.61 -19.55,50.51 -58.64,80.85 -38.37,32.34 -68.05,48.55 -88.89,48.55 -16.16,0 -26.63,-5.08 -31.37,-15.22 -3.37,-6.69 -6.05,-11.41 -8.08,-14.12 -2.01,-4.04 -6.39,-6.07 -13.1,-6.07 -12.82,1.39 -19.21,11.52 -19.21,30.34 0,9.43 3,17.2 9.11,23.25 3.38,3.38 6.72,6.05 10.1,8.08 3.39,2.01 7.7,3.05 13.1,3.05 23.58,-0.71 54.89,-11.13 94,-31.36 19.53,-11.47 37.04,-22.72 52.55,-33.85 15.48,-11.13 29.62,-23.41 42.43,-36.89 26.97,-28.96 40.42,-51.55 40.42,-67.69 -2.01,-24.94 -17.18,-37.43 -45.44,-37.43 -26.29,0.71 -55.63,8.09 -87.95,22.26 -13.47,7.43 -26.62,14.52 -39.44,21.21l-38.4 20.26c142.17,-162.38 213.26,-243.93 213.26,-244.57 -2.03,-7.44 -4.75,-11.13 -8.08,-11.13z"/>
  <path class="fil2 str0" d="M6969.53 4538.69c-15.53,8.79 -28.96,16.18 -40.42,22.26 -28.31,14.77 -54.07,25.9 -77.31,33.34 -23.24,7.39 -44.35,8.07 -63.18,2 -13.47,-4.74 -24.11,-12.12 -31.81,-22.25 -7.79,-10.09 -11.6,-26.56 -11.6,-49.47 0,-16.16 12.1,-35.71 36.34,-58.64 25.63,-23.54 38.41,-39.05 38.41,-46.51 -0.65,-7.37 -5.4,-11.07 -14.14,-11.07 -10.75,0 -27.95,15.49 -51.55,46.48 -15.49,20.89 -28.79,37.36 -39.89,49.55 -11.13,12.06 -20.39,21.16 -27.8,27.26 -20.2,16.15 -38.24,28.79 -54.07,37.88 -15.82,9.11 -29.8,12.31 -41.92,9.61 -14.83,-3.39 -21.25,-15.17 -19.2,-35.37 1.33,-11.44 5.85,-23.38 13.64,-35.87 7.72,-12.47 20.03,-25.78 36.85,-39.9 9.44,-7.43 18.56,-14.17 27.33,-20.25 8.74,-6.04 17.48,-11.79 26.25,-17.17 2.01,-4.05 2.39,-7.58 1.02,-10.61 -1.36,-3.05 -4.03,-4.56 -8.11,-4.56 -30.29,19.57 -55.23,36.61 -74.75,51.08 -19.54,14.47 -34,26.72 -43.48,36.86 -20.84,22.2 -30.98,44.8 -30.29,67.71 0,15.48 4.71,26.77 14.19,33.82 9.4,7.09 19.48,10.65 30.29,10.65 9.46,0 20.18,-2.01 32.3,-6.04 12.17,-4.04 24.6,-9.44 37.43,-16.21 12.77,-6.73 24.91,-14.47 36.38,-23.25 11.44,-8.74 21.21,-17.51 29.29,-26.25 -0.65,15.51 1.04,28.63 5.03,39.42 4.08,10.73 9.27,19.51 15.7,26.29 6.39,6.69 13.79,11.72 22.21,15.12 8.42,3.4 16.64,5.4 24.77,6.09 12.78,0.65 28.64,-1.36 47.52,-6.09 18.81,-4.7 39.54,-11.94 62.14,-21.68 22.57,-9.82 46.11,-21.94 70.74,-36.38 24.57,-14.52 49.01,-30.84 73.24,-49.04 5.4,-4.04 7.07,-8.43 5.06,-13.11 -1.36,-4.1 -3.22,-5.23 -5.56,-3.56 -2.34,1.69 -4.92,3.17 -7.59,4.55 -13.46,13.47 -27.93,24.6 -43.43,33.33z"/>
  <path class="fil2 str0" d="M7294.42 4497.74c-2.34,-0.3 -4.54,0.49 -6.56,2.58 -51.19,34.32 -96.19,57.42 -134.92,69.18 -38.73,11.78 -69.18,17.69 -91.44,17.69 -13.47,0 -25.91,-3.68 -37.42,-11.11 -7.38,-5.4 -12.78,-9.91 -16.14,-13.61 -3.34,-3.74 -4.42,-9.95 -3.01,-18.73 15.5,-8.07 29.29,-16.3 41.36,-24.74 12.17,-8.42 23.3,-17.37 33.38,-26.81 6.72,-5.4 13.65,-11.25 20.73,-17.68 7.09,-6.39 13.47,-12.77 19.21,-19.21 5.69,-6.35 10.26,-12.6 13.64,-18.66 3.37,-6.08 5.07,-12.16 5.07,-18.21 -1.36,-14.12 -5.76,-22.74 -13.14,-25.77 -7.43,-3.04 -14.13,-4.56 -20.26,-4.56 -26.24,0.7 -57.24,19.9 -92.95,57.62 -34.33,39.77 -51.52,74.46 -51.52,104.11 0.65,47.81 24.24,71.71 70.71,71.71 37.75,-0.65 77.1,-9.6 118.23,-26.77 41.14,-17.17 89.59,-43.93 145.56,-80.31 2.68,-2.69 3.71,-6.38 3.02,-11.13 0,-3.38 -1.16,-5.17 -3.56,-5.57zm-216.28 -34.33c-9.09,13.13 -22.37,24.73 -39.89,34.82 -4.69,3.39 -10.78,6.3 -18.16,8.64 -7.42,2.34 -11.78,3.52 -13.18,3.52 0,-7.39 2.38,-16.52 7.09,-27.25 4.74,-10.83 11.78,-20.9 21.2,-30.34 18.88,-20.9 34.04,-31.38 45.47,-31.38 8.78,2.08 13.17,4.74 13.17,8.13 -1.36,9.43 -6.58,20.74 -15.7,33.86z"/>
  <path class="fil2 str0" d="M7647.1 4585.68c40.71,-13.78 86.71,-35.87 137.95,-66.18 1.34,-1.37 2.64,-3.05 4,-5.06 1.38,-2.03 1.38,-4.05 0,-6.07 -1.36,-4.01 -3,-5.88 -5.07,-5.54 -2.02,0.37 -3.7,0.48 -5.03,0.48 -22.25,14.82 -44.1,26.95 -65.67,36.38 -21.55,9.43 -41.59,17.03 -60.17,22.74 -18.51,5.72 -34.66,9.6 -48.46,11.63 -13.8,2.01 -24.43,2.68 -31.85,2.01 -33.68,-2.68 -50.54,-16.16 -50.54,-40.42 0.68,-21.55 10.76,-44.47 30.34,-68.68l31.33 -37.42c-2.03,-8.74 -4.7,-13.17 -8.09,-13.17 -8.1,0 -19.03,5.09 -32.84,15.18 -13.8,10.11 -27.15,23.24 -39.93,39.41 -10.79,5.44 -23.25,10.61 -37.37,15.7 -14.13,5.04 -28.69,9.91 -43.47,14.64 -14.81,4.71 -29.15,9.09 -42.94,13.14 -13.81,4.04 -25.76,7.73 -35.85,11.12 10.75,-21.55 21.84,-38.89 33.28,-52.06 11.51,-13.14 18.58,-23.39 21.27,-30.82 2.01,-6.04 1.48,-11.12 -1.52,-15.16 -3,-4.05 -8.24,-6.05 -15.65,-6.05 -3.39,1.36 -9.13,3.39 -17.2,6.05 -8.06,2.73 -13.46,6.06 -16.14,10.11 -4.74,6.03 -8.3,11.6 -10.65,16.69 -2.34,5.05 -5.19,10.96 -8.55,17.65 -3.4,6.78 -8.13,15.18 -14.18,25.29 -6.07,10.08 -14.46,23.22 -25.23,39.44 -13.5,18.86 -23.27,33.64 -29.34,44.45 -6.04,10.74 -9.1,18.48 -9.1,23.23 0,2.67 2.05,5.2 6.04,7.59 4.09,2.34 6.44,3.51 7.09,3.51 1.4,0 4.42,-2.03 9.13,-6.06 4.69,-4.04 10.25,-9.1 16.63,-15.18 6.44,-6.04 13.19,-12.91 20.24,-20.68 7.05,-7.75 13.65,-15.31 19.7,-22.74 12.11,-4.04 25.1,-7.73 38.9,-11.12 13.79,-3.39 27.77,-7.09 41.95,-11.13 14.17,-4.05 28.31,-8.56 42.43,-13.65 14.13,-5 27.29,-11.25 39.42,-18.65 -3.39,5.35 -6.39,13.09 -9.08,23.23 -2.71,10.11 -4.04,18.9 -4.04,26.24 0,40.45 19.21,60.62 57.57,60.62 33,0 69.94,-6.86 110.68,-20.68z"/>
  <path class="fil2 str0" d="M8330.22 4497.74c-2.39,0.4 -4.53,1.19 -6.57,2.58 -31.68,22.91 -59.61,39.54 -83.85,49.97 -24.26,10.48 -45.86,17.17 -64.7,20.23 -18.88,3.03 -34.7,3.89 -47.51,2.51 -12.81,-1.35 -23.2,-2.65 -31.31,-4.04 -21.55,-3.35 -49.18,-8.73 -82.83,-16.12 -33.75,-7.44 -73.8,-20.57 -120.28,-39.44 6.75,-6.73 15.15,-13.12 25.25,-19.19 10.09,-6.1 21.87,-12.8 35.35,-20.23 43.12,-19.52 85.56,-29.29 127.34,-29.29 7.41,1.35 16.35,2.99 26.78,5.03 10.42,2.01 19.69,3.05 27.77,3.05 14.17,0 21.26,-7.43 21.26,-22.25 -2.05,-17.52 -14.54,-26.25 -37.42,-26.25 -23.62,0.65 -52.38,6.56 -86.42,17.66 -33.99,11.13 -73.59,28.5 -118.7,52.06 -24.29,13.47 -48.17,26.61 -71.76,39.42 -23.56,12.79 -46.86,25.25 -69.72,37.39 0.65,-0.7 5.22,-5.73 13.62,-15.16 8.47,-9.44 19.05,-21.56 31.83,-36.4 12.81,-14.76 26.78,-31.15 41.95,-48.97 15.16,-17.87 30.12,-35.92 44.95,-54.07 14.85,-18.22 28.15,-35.4 39.94,-51.55 11.74,-16.17 20.68,-29.64 26.77,-40.42 0.67,-11.47 -2.88,-18.56 -10.62,-21.21 -7.76,-2.69 -15.33,-2.37 -22.75,0.96 -9.39,4.74 -19.53,12.65 -30.29,23.78 -10.79,11.12 -18.88,26.11 -24.27,44.98 -2.03,6.03 -3.54,11.43 -4.58,16.18 -0.99,4.7 -2.68,9.77 -5.03,15.12 -2.34,5.43 -6.04,12.35 -11.08,20.73 -5.08,8.45 -12.65,19.38 -22.75,32.86 -29.66,37.73 -53.73,67.71 -72.27,89.94 -18.5,22.24 -34.35,40.57 -47.45,55.06 -13.15,14.52 -24.6,26.64 -34.37,36.38 -9.74,9.77 -20.03,21.08 -30.82,33.89l19.19 3c13.49,-9.44 26.42,-18.56 38.91,-27.3 12.49,-8.75 25.1,-17.81 37.9,-27.26 42.39,-28.98 76.77,-43.49 103.07,-43.49 4.06,0.71 12.94,2.91 26.77,6.6 13.81,3.68 33.51,9.95 59.13,18.7 25.59,8.75 47.65,15 66.14,18.69 18.59,3.71 33.55,5.56 45.02,5.56 20.18,0 40.74,-0.64 61.64,-2 20.86,-1.39 42.77,-5.09 65.68,-11.13 22.92,-6.08 46.67,-15.34 71.26,-27.8 24.58,-12.49 51.06,-30.17 79.34,-53.05 4.05,-4.07 5.72,-7.78 5.02,-11.16 -0.66,-3.34 -2.13,-4.83 -4.52,-4.53z"/>
  <path class="fil2 str0" d="M8706.66 4500.28c-2.68,0 -5.04,0.7 -7.09,2.03 -21.55,15.48 -41.08,27.76 -58.6,36.87 -17.55,9.12 -33.33,15.86 -47.48,20.25 -14.18,4.35 -26.96,7.21 -38.45,8.55 -11.42,1.36 -21.89,2.04 -31.28,2.04 -13.53,0 -24.6,-4.39 -33.39,-13.16 21.55,-17.51 37.06,-35.03 46.49,-52.54 9.44,-17.51 14.18,-35.03 14.18,-52.54 0,-32.35 -17.18,-48.48 -51.54,-48.48 -16.16,0 -35.42,5.05 -57.63,15.15 -22.25,10.11 -46.15,25.93 -71.73,47.49 -51.88,45.16 -77.84,85.59 -77.84,121.27 0,14.12 4.89,24.77 14.7,31.81 9.73,7.08 22.05,10.26 36.84,9.61 23.63,-1.31 45.65,-6.9 66.21,-16.65 20.53,-9.77 40.56,-23.07 60.13,-39.94 16.16,13.46 33.02,19.86 50.54,19.21 26.29,-1.36 54.55,-6.72 84.89,-16.21 30.29,-9.4 63.99,-28.26 101.05,-56.56 2.01,-2.03 3.17,-3.85 3.53,-5.54 0.34,-1.7 0.54,-3.89 0.54,-6.58 0,-4.04 -1.4,-6.07 -4.07,-6.07zm-231.4 38.41c-9.47,-8.08 -14.17,-24.6 -14.17,-49.54 1.33,-16.13 7.58,-30.81 18.7,-43.9 11.14,-13.17 23.75,-19.74 37.89,-19.74 7.41,0.7 12.31,2.39 14.67,5.05 2.34,2.74 3.51,7.04 3.51,13.12 0,31.04 -20.18,62.68 -60.58,95.02zm-108.13 55.6c-10.09,-0.71 -18.22,-4.05 -24.27,-10.14 -6.09,-6.07 -8.42,-15.17 -7.09,-27.29 2.01,-12.12 7.09,-24.38 15.16,-36.87 8.09,-12.46 18.05,-24.06 29.84,-34.85 11.75,-10.77 24.56,-20.21 38.37,-28.33 13.8,-8.05 26.78,-13.43 38.94,-16.16 -4.09,9.45 -7.62,19.36 -10.65,29.8 -2.99,10.48 -4.69,20.74 -5.06,30.83 -0.34,10.12 0.83,19.9 3.55,29.33 2.68,9.44 7.42,17.51 14.16,24.26 -33.7,26.26 -64.68,39.43 -92.96,39.43z"/>
 </g>
</svg>
